<svg id="Layer_1" data-name="Layer 1" xmlns="http://www.w3.org/2000/svg" width="6115" height="1827.93" viewBox="0 0 6115 1827.93"><link xmlns="" type="text/css" id="dark-mode" rel="stylesheet" href=""/><style xmlns="" type="text/css" id="dark-mode-custom-style"/>
  <defs>
    <style>
      .cls-1 {
        fill: #ec1f28;
      }

      .cls-2 {
        fill: #fff;
      }

      .cls-3, .cls-4 {
        fill: #172852;
      }

      .cls-5 {
        fill: #b2b2b2;
      }

      .cls-4 {
        stroke: #fff;
        stroke-miterlimit: 10;
        stroke-width: 3.9px;
      }
    </style>
  </defs>
  <g>
    <g>
      <path class="cls-1" d="M2558.28,309.45c2.76-15.64,8.28-23.92,15.64-23.92s12.88,4.6,24.84,28.51l251.11,518.79,250.19-525.22c7.36-14.72,11.96-22.08,20.24-22.08s13.8,9.2,16.56,28.51l83.7,568.46c8.28,57.95,17.48,84.62,45.07,92.9,26.68,8.28,45.07,9.2,57.03,9.2,8.28,0,14.72.92,14.72,6.44,0,7.36-11.04,10.12-23.92,10.12-23,0-149.93-2.76-186.73-5.52-21.16-1.84-26.68-4.6-26.68-10.12,0-4.6,3.68-7.36,10.12-10.12,5.52-1.84,8.28-13.8,4.6-39.55l-55.19-404.73h-3.68l-200.52,417.6c-21.16,43.23-25.76,51.51-34.03,51.51s-17.48-18.4-32.19-45.99c-22.08-42.31-94.74-183.05-105.78-208.8-8.28-19.32-63.47-135.22-95.66-204.2h-3.68l-47.83,366.09c-1.84,16.56-2.76,28.51-2.76,43.23,0,17.48,11.96,25.76,27.59,29.43,16.56,3.68,29.43,4.6,38.63,4.6,7.36,0,13.8,1.84,13.8,6.44,0,8.28-8.28,10.12-22.08,10.12-38.63,0-80.03-2.76-96.58-2.76-17.48,0-61.63,2.76-91.06,2.76-9.2,0-16.56-1.84-16.56-10.12,0-4.6,5.52-6.44,14.72-6.44,7.36,0,13.8,0,27.59-2.76,25.76-5.52,33.11-41.39,37.71-72.67l91.06-599.73Z"/>
      <path class="cls-1" d="M3599.08,761.09c-4.6,0-6.44,1.84-8.28,7.36l-49.67,131.54c-9.2,23-13.8,45.07-13.8,56.11,0,16.56,8.28,28.51,36.79,28.51h13.8c11.04,0,13.8,1.84,13.8,7.36,0,7.36-5.52,9.2-15.64,9.2-29.43,0-68.99-2.76-97.5-2.76-10.12,0-60.71,2.76-108.54,2.76-11.96,0-17.48-1.84-17.48-9.2,0-5.52,3.68-7.36,11.04-7.36,8.28,0,21.16-.92,28.51-1.84,42.31-5.52,59.79-36.79,78.19-82.78l230.88-577.65c11.04-26.68,16.56-36.79,25.76-36.79,8.28,0,13.8,8.28,23,29.43,22.08,50.59,169.25,425.88,228.12,565.7,34.95,82.78,61.63,95.66,80.95,100.26,13.8,2.76,27.59,3.68,38.63,3.68,7.36,0,11.96.92,11.96,7.36,0,7.36-8.28,9.2-42.31,9.2s-100.26,0-173.85-1.84c-16.56-.92-27.59-.92-27.59-7.36,0-5.52,3.68-7.36,12.88-8.28,6.44-1.84,12.88-10.12,8.28-21.16l-73.59-195c-1.84-4.6-4.6-6.44-9.2-6.44h-205.12ZM3786.73,715.1c4.6,0,5.52-2.76,4.6-5.52l-82.78-227.2c-.92-3.68-1.84-8.28-4.6-8.28s-4.6,4.6-5.52,8.28l-84.62,226.28c-.92,3.68,0,6.44,3.68,6.44h169.25Z"/>
      <path class="cls-1" d="M4241.3,572.52c0-139.81,0-165.57-1.84-195-1.84-31.27-9.2-45.99-39.55-52.43-7.36-1.84-23-2.76-35.87-2.76-10.12,0-15.64-1.84-15.64-8.28s6.44-8.28,20.24-8.28c48.75,0,106.7,2.76,132.46,2.76,37.71,0,91.06-2.76,133.38-2.76,114.98,0,156.37,38.63,171.09,52.43,20.24,19.32,45.99,60.71,45.99,109.46,0,130.62-95.66,222.6-226.28,222.6-4.6,0-14.72,0-19.32-.92-4.6-.92-11.04-1.84-11.04-8.28,0-7.36,6.44-10.12,25.76-10.12,51.51,0,123.26-57.95,123.26-151.77,0-30.35-2.76-91.98-54.27-137.97-33.11-30.35-70.83-35.87-91.98-35.87-13.8,0-27.59.92-35.87,3.68-4.6,1.84-7.36,7.36-7.36,17.48v367.93c0,84.62,0,157.29,4.6,196.84,2.76,25.76,8.28,45.99,35.87,49.67,12.88,1.84,33.11,3.68,46.91,3.68,10.12,0,14.72,2.76,14.72,7.36,0,6.44-7.36,9.2-17.48,9.2-60.71,0-118.66-2.76-142.57-2.76-21.16,0-79.11,2.76-115.9,2.76-11.96,0-18.4-2.76-18.4-9.2,0-4.6,3.68-7.36,14.72-7.36,13.8,0,24.84-1.84,33.11-3.68,18.4-3.68,23-23.92,26.68-50.59,4.6-38.63,4.6-111.3,4.6-195.92v-161.89Z"/>
      <path class="cls-1" d="M4780.6,572.52c0-139.81,0-165.57-1.84-195-1.84-31.27-9.2-45.99-39.55-52.43-7.36-1.84-23-2.76-35.87-2.76-10.12,0-15.64-1.84-15.64-8.28s6.44-8.28,20.24-8.28c48.75,0,106.7,2.76,134.3,2.76,22.08,0,80.03-2.76,113.14-2.76,13.8,0,20.24,1.84,20.24,8.28s-5.52,8.28-14.72,8.28c-10.12,0-15.64.92-26.68,2.76-24.84,4.6-32.19,20.24-34.03,52.43-1.84,29.43-1.84,55.19-1.84,195v128.78c0,133.38,26.68,189.49,71.75,226.28,41.39,34.03,83.7,37.71,114.98,37.71,40.47,0,90.14-12.88,126.94-49.67,50.59-50.59,53.35-133.38,53.35-228.12v-114.98c0-139.81,0-165.57-1.84-195-1.84-31.27-9.2-45.99-39.55-52.43-7.36-1.84-23-2.76-33.11-2.76s-15.64-1.84-15.64-8.28,6.44-8.28,19.32-8.28c46.91,0,104.86,2.76,105.78,2.76,11.04,0,68.99-2.76,104.86-2.76,12.88,0,19.32,1.84,19.32,8.28s-5.52,8.28-16.56,8.28c-10.12,0-15.64.92-26.68,2.76-24.84,4.6-32.19,20.24-34.03,52.43-1.84,29.43-1.84,55.19-1.84,195v98.42c0,102.1-10.12,210.64-87.38,276.87-65.31,56.11-131.54,66.23-191.33,66.23-48.75,0-137.06-2.76-204.2-63.47-46.91-42.31-81.87-110.38-81.87-243.76v-134.3ZM5231.31,159.52c5.52,11.04,0,13.8-4.6,13.8s-12.88-1.84-31.27,0c-50.59,6.44-123.26,35.87-157.29,54.27-7.36,3.68-13.8,7.36-15.64,7.36s-5.52-1.84-5.52-5.52,3.68-7.36,8.28-11.96c36.79-34.95,133.38-106.7,148.09-115.9,9.2-6.44,15.64-8.28,18.4-8.28,6.44,0,8.28,2.76,12.88,11.04,7.36,12.88,15.64,30.35,26.68,55.19Z"/>
      <path class="cls-1" d="M5604.49,761.09c-4.6,0-6.44,1.84-8.28,7.36l-49.67,131.54c-9.2,23-13.8,45.07-13.8,56.11,0,16.56,8.28,28.51,36.79,28.51h13.8c11.04,0,13.8,1.84,13.8,7.36,0,7.36-5.52,9.2-15.64,9.2-29.43,0-68.99-2.76-97.5-2.76-10.12,0-60.71,2.76-108.54,2.76-11.96,0-17.48-1.84-17.48-9.2,0-5.52,3.68-7.36,11.04-7.36,8.28,0,21.16-.92,28.51-1.84,42.31-5.52,59.79-36.79,78.19-82.78l230.88-577.65c11.04-26.68,16.56-36.79,25.76-36.79,8.28,0,13.8,8.28,23,29.43,22.08,50.59,169.25,425.88,228.12,565.7,34.95,82.78,61.63,95.66,80.95,100.26,13.8,2.76,27.59,3.68,38.63,3.68,7.36,0,11.96.92,11.96,7.36,0,7.36-8.28,9.2-42.31,9.2s-100.26,0-173.85-1.84c-16.56-.92-27.59-.92-27.59-7.36,0-5.52,3.68-7.36,12.88-8.28,6.44-1.84,12.88-10.12,8.28-21.16l-73.59-195c-1.84-4.6-4.6-6.44-9.2-6.44h-205.12ZM5792.14,715.1c4.6,0,5.52-2.76,4.6-5.52l-82.78-227.2c-.92-3.68-1.84-8.28-4.6-8.28s-4.6,4.6-5.52,8.28l-84.62,226.28c-.92,3.68,0,6.44,3.68,6.44h169.25Z"/>
    </g>
    <g>
      <path class="cls-3" d="M2428.61,1125.49c.97-5.59,2.93-8.53,5.57-8.53s4.57,1.64,8.85,10.14l89.5,184.91,89.17-187.2c2.64-5.25,4.28-7.86,7.21-7.86s4.92,3.28,5.92,10.14l29.83,202.61c2.93,20.66,6.22,30.18,16.06,33.11,9.5,2.96,16.06,3.28,20.31,3.28,2.96,0,5.27.32,5.27,2.29,0,2.64-3.95,3.63-8.53,3.63-8.2,0-53.45-.99-66.55-1.99-7.56-.65-9.52-1.64-9.52-3.6,0-1.64,1.32-2.61,3.6-3.6,1.96-.65,2.96-4.92,1.64-14.1l-19.66-144.24h-1.32l-71.47,148.84c-7.53,15.41-9.17,18.35-12.13,18.35s-6.22-6.54-11.46-16.38c-7.88-15.09-33.79-65.23-37.71-74.43-2.96-6.89-22.62-48.18-34.08-72.77h-1.32l-17.05,130.47c-.65,5.92-.97,10.17-.97,15.41,0,6.24,4.25,9.2,9.82,10.49,5.92,1.32,10.49,1.64,13.77,1.64,2.64,0,4.92.67,4.92,2.29,0,2.96-2.96,3.63-7.88,3.63-13.75,0-28.51-.99-34.41-.99-6.24,0-21.98.99-32.47.99-3.28,0-5.89-.67-5.89-3.63,0-1.62,1.96-2.29,5.25-2.29,2.61,0,4.92,0,9.82-.97,9.2-1.96,11.81-14.77,13.45-25.9l32.47-213.75Z"/>
      <path class="cls-3" d="M2801.09,1286.46c-1.64,0-2.29.65-2.93,2.61l-17.73,46.89c-3.26,8.2-4.9,16.06-4.9,19.99,0,5.92,2.93,10.17,13.1,10.17h4.92c3.93,0,4.92.67,4.92,2.64,0,2.61-1.96,3.28-5.57,3.28-10.49,0-24.61-.99-34.75-.99-3.6,0-21.65.99-38.68.99-4.28,0-6.24-.67-6.24-3.28,0-1.96,1.32-2.64,3.93-2.64,2.96,0,7.56-.32,10.17-.65,15.09-1.96,21.31-13.13,27.87-29.51l82.29-205.89c3.93-9.5,5.89-13.1,9.17-13.1,2.96,0,4.92,2.93,8.2,10.49,7.86,18.02,60.31,151.8,81.29,201.62,12.48,29.51,21.98,34.11,28.86,35.72,4.92.99,9.84,1.32,13.77,1.32,2.61,0,4.25.32,4.25,2.64,0,2.61-2.93,3.28-15.07,3.28s-35.75,0-61.98-.67c-5.89-.32-9.82-.32-9.82-2.61,0-1.96,1.29-2.64,4.57-2.96,2.31-.65,4.6-3.6,2.96-7.53l-26.23-69.51c-.65-1.64-1.64-2.29-3.28-2.29h-73.11ZM2867.99,1270.05c1.62,0,1.96-.97,1.62-1.96l-29.48-80.97c-.35-1.32-.67-2.96-1.64-2.96s-1.64,1.64-1.96,2.96l-30.18,80.65c-.32,1.32,0,2.29,1.32,2.29h60.34Z"/>
      <path class="cls-3" d="M3073.09,1276.94c0,41.96,0,64.59,6.89,70.48,5.57,4.92,14.1,7.23,39.68,7.23,17.38,0,30.16-.35,38.36-9.2,3.93-4.25,7.86-13.42,8.53-19.66.32-2.96.97-4.92,3.6-4.92,2.29,0,2.61,1.64,2.61,5.57,0,3.63-2.29,28.22-4.92,37.71-1.96,7.21-3.6,8.85-20.63,8.85-23.62,0-40.67-.65-55.41-.97-14.77-.67-26.55-.99-40-.99-3.6,0-10.81,0-18.69.32-7.53,0-16.06.67-22.62.67-4.25,0-6.54-.99-6.54-3.28,0-1.64,1.29-2.64,5.25-2.64,4.9,0,8.85-.65,11.78-1.32,6.56-1.29,8.2-8.5,9.52-18.02,1.64-13.77,1.64-39.68,1.64-69.83v-57.7c0-49.82,0-59.02-.67-69.51-.65-11.14-3.26-16.38-14.1-18.67-2.61-.67-6.54-.99-10.81-.99-3.6,0-5.57-.65-5.57-2.96s2.29-2.93,7.21-2.93c15.41,0,36.07.97,44.92.97,7.86,0,31.8-.97,44.57-.97,4.6,0,6.89.65,6.89,2.93s-1.96,2.96-5.89,2.96c-3.6,0-8.85.32-12.8.99-8.85,1.64-11.46,7.21-12.11,18.67-.67,10.49-.67,19.69-.67,69.51v57.7Z"/>
      <path class="cls-3" d="M3267.72,1286.46c-1.64,0-2.29.65-2.93,2.61l-17.73,46.89c-3.26,8.2-4.9,16.06-4.9,19.99,0,5.92,2.93,10.17,13.1,10.17h4.92c3.93,0,4.92.67,4.92,2.64,0,2.61-1.96,3.28-5.57,3.28-10.49,0-24.61-.99-34.75-.99-3.6,0-21.65.99-38.68.99-4.28,0-6.24-.67-6.24-3.28,0-1.96,1.32-2.64,3.93-2.64,2.96,0,7.56-.32,10.17-.65,15.09-1.96,21.31-13.13,27.87-29.51l82.29-205.89c3.93-9.5,5.89-13.1,9.17-13.1,2.96,0,4.92,2.93,8.2,10.49,7.86,18.02,60.31,151.8,81.29,201.62,12.48,29.51,21.98,34.11,28.86,35.72,4.92.99,9.84,1.32,13.77,1.32,2.61,0,4.25.32,4.25,2.64,0,2.61-2.93,3.28-15.07,3.28s-35.75,0-61.98-.67c-5.89-.32-9.82-.32-9.82-2.61,0-1.96,1.29-2.64,4.57-2.96,2.31-.65,4.6-3.6,2.96-7.53l-26.23-69.51c-.65-1.64-1.64-2.29-3.28-2.29h-73.11ZM3334.62,1270.05c1.62,0,1.96-.97,1.62-1.96l-29.48-80.97c-.35-1.32-.67-2.96-1.64-2.96s-1.64,1.64-1.96,2.96l-30.18,80.65c-.32,1.32,0,2.29,1.32,2.29h60.34Z"/>
      <path class="cls-3" d="M3516.75,1287.11c0-17.7-3.28-24.91-7.56-34.43-2.29-5.25-46.22-77.37-57.7-94.42-8.18-12.13-16.38-20.31-22.6-23.92-4.28-2.31-9.84-4.28-13.77-4.28-2.64,0-4.92-.65-4.92-2.96,0-1.96,2.29-2.93,6.22-2.93,5.92,0,30.5.97,41.32.97,6.89,0,20.34-.97,35.08-.97,3.28,0,4.92.97,4.92,2.93s-2.29,2.31-7.21,3.63c-2.96.65-4.6,3.26-4.6,5.89s1.64,6.56,3.93,11.14c4.6,9.84,50.49,88.85,55.74,98.02,3.28-7.86,44.6-79.98,49.17-90.14,3.28-7.21,4.6-12.78,4.6-17.05,0-3.28-1.32-6.89-6.89-8.2-2.96-.65-5.89-1.29-5.89-3.28,0-2.29,1.64-2.93,5.57-2.93,10.81,0,21.31.97,30.8.97,7.23,0,28.86-.97,35.1-.97,3.6,0,5.89.65,5.89,2.61,0,2.31-2.64,3.28-6.24,3.28-3.28,0-9.5,1.32-14.42,3.93-6.89,3.28-10.49,7.23-17.7,16.08-10.81,13.1-56.71,90.14-62.62,104.24-4.92,11.81-4.92,21.98-4.92,32.79v26.87c0,5.25,0,19.02.99,32.79.65,9.52,3.6,16.73,13.45,18.02,4.57.67,11.78,1.32,16.38,1.32,3.6,0,5.25.99,5.25,2.64,0,2.29-2.64,3.28-6.89,3.28-20.66,0-41.32-.99-50.17-.99-8.18,0-28.84.99-40.97.99-4.6,0-7.21-.67-7.21-3.28,0-1.64,1.64-2.64,5.25-2.64,4.57,0,8.53-.65,11.46-1.32,6.56-1.29,9.52-8.5,10.17-18.02.99-13.77.99-27.55.99-32.79v-26.87Z"/>
      <path class="cls-3" d="M3714.91,1286.46c-1.64,0-2.29.65-2.93,2.61l-17.73,46.89c-3.26,8.2-4.9,16.06-4.9,19.99,0,5.92,2.93,10.17,13.1,10.17h4.92c3.93,0,4.92.67,4.92,2.64,0,2.61-1.96,3.28-5.57,3.28-10.49,0-24.61-.99-34.75-.99-3.6,0-21.65.99-38.68.99-4.28,0-6.24-.67-6.24-3.28,0-1.96,1.32-2.64,3.93-2.64,2.96,0,7.56-.32,10.17-.65,15.09-1.96,21.31-13.13,27.87-29.51l82.29-205.89c3.93-9.5,5.89-13.1,9.17-13.1,2.96,0,4.92,2.93,8.2,10.49,7.86,18.02,60.31,151.8,81.29,201.62,12.48,29.51,21.98,34.11,28.86,35.72,4.92.99,9.84,1.32,13.77,1.32,2.61,0,4.25.32,4.25,2.64,0,2.61-2.93,3.28-15.07,3.28s-35.75,0-61.98-.67c-5.89-.32-9.82-.32-9.82-2.61,0-1.96,1.29-2.64,4.57-2.96,2.31-.65,4.6-3.6,2.96-7.53l-26.23-69.51c-.65-1.64-1.64-2.29-3.28-2.29h-73.11ZM3781.81,1270.05c1.62,0,1.96-.97,1.62-1.96l-29.48-80.97c-.35-1.32-.67-2.96-1.64-2.96s-1.64,1.64-1.96,2.96l-30.18,80.65c-.32,1.32,0,2.29,1.32,2.29h60.34Z"/>
      <path class="cls-3" d="M3969.38,1327.43c.67,25.58,4.92,34.11,11.49,36.4,5.57,1.96,11.81,2.29,17.05,2.29,3.6,0,5.57.67,5.57,2.64,0,2.61-2.96,3.28-7.56,3.28-21.31,0-34.41-.99-40.65-.99-2.93,0-18.35.99-35.4.99-4.28,0-7.21-.35-7.21-3.28,0-1.96,1.96-2.64,5.25-2.64,4.25,0,10.17-.32,14.74-1.64,8.53-2.61,9.84-12.13,10.17-40.65l2.96-194.08c0-6.56.97-11.14,4.25-11.14,3.6,0,6.56,4.25,12.13,10.14,3.93,4.28,53.77,57.7,101.63,105.26,22.3,22.27,66.55,69.48,72.12,74.73h1.64l-3.26-147.2c-.35-19.99-3.28-26.23-11.16-29.51-4.92-1.96-12.78-1.96-17.38-1.96-3.93,0-5.25-.97-5.25-2.96,0-2.61,3.6-2.93,8.53-2.93,17.05,0,32.79.97,39.68.97,3.6,0,16.06-.97,32.12-.97,4.28,0,7.53.32,7.53,2.93,0,1.99-1.96,2.96-5.89,2.96-3.28,0-5.89,0-9.82.99-9.2,2.61-11.81,9.5-12.13,27.87l-3.63,206.86c0,7.21-1.29,10.17-4.25,10.17-3.6,0-7.53-3.6-11.14-7.21-20.66-19.69-62.62-62.62-96.73-96.38-35.72-35.43-72.12-76.4-78.01-82.64h-.99l3.6,137.7Z"/>
      <path class="cls-3" d="M4364.78,1340.88c-32.14-28.19-40.67-64.91-40.67-96.73,0-22.27,6.89-60.96,38.36-89.82,23.62-21.63,54.77-34.75,103.59-34.75,20.34,0,32.47,1.32,47.56,3.28,12.46,1.64,22.95,4.6,32.77,5.57,3.6.32,4.92,1.96,4.92,3.95,0,2.61-.97,6.54-1.64,18.02-.65,10.81-.32,28.84-.97,35.4-.32,4.92-.99,7.53-3.93,7.53-2.64,0-3.28-2.61-3.28-7.21-.35-10.17-4.6-21.63-12.8-30.16-10.81-11.49-36.37-20.34-66.55-20.34-28.51,0-47.21,7.23-61.63,20.34-23.94,21.98-30.16,53.1-30.16,84.92,0,78.01,59.34,116.69,103.27,116.69,29.19,0,46.89-3.28,59.99-18.35,5.57-6.24,9.84-15.74,11.16-21.65.97-5.25,1.62-6.54,4.25-6.54,2.29,0,2.96,2.29,2.96,4.9,0,3.95-3.95,32.47-7.21,43.61-1.64,5.59-2.96,7.23-8.53,9.52-13.13,5.25-38.04,7.53-59.02,7.53-44.92,0-82.61-9.82-112.44-35.72Z"/>
      <path class="cls-3" d="M4582.93,1248.1c0-56.06,37.07-128.53,135.41-128.53,81.62,0,132.46,47.53,132.46,122.61s-52.46,134.42-135.74,134.42c-94.1,0-132.13-70.48-132.13-128.5ZM4804.88,1254.32c0-73.44-42.29-119.01-96.06-119.01-37.69,0-80.65,20.98-80.65,102.62,0,68.19,37.71,122.29,100.66,122.29,22.95,0,76.05-11.16,76.05-105.91Z"/>
      <path class="cls-3" d="M4951.54,1276.94c0,41.96,0,64.59,6.89,70.48,5.57,4.92,14.1,7.23,39.68,7.23,17.38,0,30.16-.35,38.36-9.2,3.93-4.25,7.86-13.42,8.53-19.66.32-2.96.97-4.92,3.6-4.92,2.29,0,2.61,1.64,2.61,5.57,0,3.63-2.29,28.22-4.92,37.71-1.96,7.21-3.6,8.85-20.63,8.85-23.62,0-40.67-.65-55.41-.97-14.77-.67-26.55-.99-40-.99-3.6,0-10.81,0-18.69.32-7.53,0-16.06.67-22.62.67-4.25,0-6.54-.99-6.54-3.28,0-1.64,1.29-2.64,5.25-2.64,4.9,0,8.85-.65,11.78-1.32,6.56-1.29,8.2-8.5,9.52-18.02,1.64-13.77,1.64-39.68,1.64-69.83v-57.7c0-49.82,0-59.02-.67-69.51-.65-11.14-3.26-16.38-14.1-18.67-2.61-.67-6.54-.99-10.81-.99-3.6,0-5.57-.65-5.57-2.96s2.29-2.93,7.21-2.93c15.41,0,36.07.97,44.92.97,7.86,0,31.8-.97,44.57-.97,4.6,0,6.89.65,6.89,2.93s-1.96,2.96-5.89,2.96c-3.6,0-8.85.32-12.8.99-8.85,1.64-11.46,7.21-12.11,18.67-.67,10.49-.67,19.69-.67,69.51v57.7Z"/>
      <path class="cls-3" d="M5150.42,1276.94c0,41.96,0,64.59,6.89,70.48,5.57,4.92,14.1,7.23,39.68,7.23,17.38,0,30.16-.35,38.36-9.2,3.93-4.25,7.86-13.42,8.53-19.66.32-2.96.97-4.92,3.6-4.92,2.29,0,2.61,1.64,2.61,5.57,0,3.63-2.29,28.22-4.92,37.71-1.96,7.21-3.6,8.85-20.63,8.85-23.62,0-40.67-.65-55.41-.97-14.77-.67-26.55-.99-40-.99-3.6,0-10.81,0-18.69.32-7.53,0-16.06.67-22.62.67-4.25,0-6.54-.99-6.54-3.28,0-1.64,1.29-2.64,5.25-2.64,4.9,0,8.85-.65,11.78-1.32,6.56-1.29,8.2-8.5,9.52-18.02,1.64-13.77,1.64-39.68,1.64-69.83v-57.7c0-49.82,0-59.02-.67-69.51-.65-11.14-3.26-16.38-14.1-18.67-2.61-.67-6.54-.99-10.81-.99-3.6,0-5.57-.65-5.57-2.96s2.29-2.93,7.21-2.93c15.41,0,36.07.97,44.92.97,7.86,0,31.8-.97,44.57-.97,4.6,0,6.89.65,6.89,2.93s-1.96,2.96-5.89,2.96c-3.6,0-8.85.32-12.8.99-8.85,1.64-11.46,7.21-12.11,18.67-.67,10.49-.67,19.69-.67,69.51v57.7Z"/>
      <path class="cls-3" d="M5308.31,1219.24c0-49.82,0-59.02-.67-69.51-.65-11.14-3.28-16.38-14.1-18.67-2.61-.67-8.18-.99-12.78-.99-3.6,0-5.57-.65-5.57-2.96s2.29-2.93,7.21-2.93c8.85,0,18.35.32,26.55.32,8.53.32,16.06.65,20.66.65,10.49,0,75.72,0,81.96-.32,6.22-.65,11.46-1.32,14.1-1.96,1.64-.32,3.6-1.32,5.25-1.32s1.96,1.32,1.96,2.96c0,2.29-1.64,6.24-2.64,21.31-.32,3.28-.97,17.7-1.62,21.65-.35,1.62-.99,3.6-3.28,3.6s-2.96-1.64-2.96-4.6c0-2.29-.32-7.88-1.96-11.81-2.29-5.89-5.57-9.82-21.98-11.78-5.57-.67-40-1.32-46.54-1.32-1.64,0-2.31.97-2.31,3.28v82.93c0,2.29.35,3.6,2.31,3.6,7.21,0,44.9,0,52.46-.65,7.86-.67,12.78-1.64,15.74-4.92,2.29-2.64,3.6-4.28,5.25-4.28,1.29,0,2.29.67,2.29,2.64s-1.32,7.21-2.61,23.94c-.35,6.54-1.32,19.66-1.32,21.95,0,2.64,0,6.24-2.96,6.24-2.29,0-2.96-1.32-2.96-2.96-.32-3.28-.32-7.53-1.29-11.81-1.64-6.54-6.24-11.46-18.37-12.78-6.22-.65-38.68-.97-46.54-.97-1.64,0-1.99,1.29-1.99,3.26v25.9c0,11.16-.32,41.32,0,50.81.67,22.62,5.92,27.55,39.35,27.55,8.53,0,22.3,0,30.8-3.93,8.53-3.95,12.48-10.81,14.77-24.26.65-3.6,1.32-4.92,3.6-4.92,2.61,0,2.61,2.64,2.61,5.89,0,7.56-2.61,29.83-4.25,36.4-2.29,8.53-5.25,8.53-17.7,8.53-24.59,0-42.61-.65-56.71-.97-14.12-.67-24.26-.99-34.11-.99-3.6,0-10.81,0-18.69.32-7.53,0-16.06.67-22.62.67-4.25,0-6.54-.99-6.54-3.28,0-1.64,1.29-2.64,5.25-2.64,4.9,0,8.85-.65,11.78-1.32,6.56-1.29,8.2-8.5,9.52-18.02,1.64-13.77,1.64-39.68,1.64-69.83v-57.7Z"/>
      <path class="cls-3" d="M5709.65,1350.05c0,8.85-.35,9.5-4.28,11.81-21.31,11.14-53.42,14.74-79.01,14.74-80.32,0-151.47-38.04-151.47-128.5,0-52.46,27.22-89.17,57.05-107.22,31.47-18.99,60.66-21.31,88.18-21.31,22.62,0,51.49,3.93,58.05,5.25,6.89,1.32,18.35,3.28,25.88,3.6,3.95.32,4.6,1.64,4.6,3.95,0,3.6-2.29,12.78-2.29,53.75,0,5.25-.99,6.89-3.6,6.89-2.31,0-2.96-1.64-3.28-4.25-.99-7.56-2.64-18.05-11.16-27.22-9.82-10.49-36.05-25.56-73.09-25.56-18.05,0-41.96,1.29-64.94,20.31-18.35,15.41-30.16,40-30.16,80.32,0,70.48,44.92,123.28,114.08,123.28,8.53,0,20.01,0,27.87-3.6,4.92-2.31,6.24-6.56,6.24-12.13v-30.83c0-16.38,0-28.86-.32-38.68-.32-11.16-3.28-16.38-14.1-18.69-2.64-.65-8.2-.97-12.8-.97-2.93,0-4.9-.67-4.9-2.64,0-2.61,2.29-3.28,6.89-3.28,17.03,0,37.69.99,47.53.99s27.52-.99,38.36-.99c4.25,0,6.54.67,6.54,3.28,0,1.96-1.96,2.64-4.25,2.64-2.64,0-4.92.32-8.85.97-8.85,1.64-12.13,7.21-12.46,18.69-.32,9.82-.32,22.95-.32,39.33v36.07Z"/>
      <path class="cls-3" d="M5789.16,1219.24c0-49.82,0-59.02-.67-69.51-.65-11.14-3.28-16.38-14.1-18.67-2.61-.67-8.18-.99-12.78-.99-3.6,0-5.57-.65-5.57-2.96s2.29-2.93,7.21-2.93c8.85,0,18.35.32,26.55.32,8.53.32,16.06.65,20.66.65,10.49,0,75.72,0,81.96-.32,6.22-.65,11.46-1.32,14.1-1.96,1.64-.32,3.6-1.32,5.25-1.32s1.96,1.32,1.96,2.96c0,2.29-1.64,6.24-2.64,21.31-.32,3.28-.97,17.7-1.62,21.65-.35,1.62-.99,3.6-3.28,3.6s-2.96-1.64-2.96-4.6c0-2.29-.32-7.88-1.96-11.81-2.29-5.89-5.57-9.82-21.98-11.78-5.57-.67-40-1.32-46.54-1.32-1.64,0-2.31.97-2.31,3.28v82.93c0,2.29.35,3.6,2.31,3.6,7.21,0,44.9,0,52.46-.65,7.86-.67,12.78-1.64,15.74-4.92,2.29-2.64,3.6-4.28,5.25-4.28,1.29,0,2.29.67,2.29,2.64s-1.32,7.21-2.61,23.94c-.35,6.54-1.32,19.66-1.32,21.95,0,2.64,0,6.24-2.96,6.24-2.29,0-2.96-1.32-2.96-2.96-.32-3.28-.32-7.53-1.29-11.81-1.64-6.54-6.24-11.46-18.37-12.78-6.22-.65-38.68-.97-46.54-.97-1.64,0-1.99,1.29-1.99,3.26v25.9c0,11.16-.32,41.32,0,50.81.67,22.62,5.92,27.55,39.35,27.55,8.53,0,22.3,0,30.8-3.93,8.53-3.95,12.48-10.81,14.77-24.26.65-3.6,1.32-4.92,3.6-4.92,2.61,0,2.61,2.64,2.61,5.89,0,7.56-2.61,29.83-4.25,36.4-2.29,8.53-5.25,8.53-17.7,8.53-24.59,0-42.61-.65-56.71-.97-14.12-.67-24.26-.99-34.11-.99-3.6,0-10.81,0-18.69.32-7.53,0-16.06.67-22.62.67-4.25,0-6.54-.99-6.54-3.28,0-1.64,1.29-2.64,5.25-2.64,4.9,0,8.85-.65,11.78-1.32,6.56-1.29,8.2-8.5,9.52-18.02,1.64-13.77,1.64-39.68,1.64-69.83v-57.7Z"/>
      <path class="cls-3" d="M5970.61,1368.08c-5.25-2.29-6.22-3.93-6.22-11.14,0-18.02,1.32-37.71,1.64-42.96.32-4.9,1.32-8.53,3.93-8.53,2.96,0,3.28,2.96,3.28,5.59,0,4.25,1.32,11.14,2.96,16.71,7.21,24.26,26.55,33.11,46.86,33.11,29.51,0,43.95-19.99,43.95-37.37,0-16.06-4.92-31.15-32.14-52.46l-15.07-11.81c-36.07-28.19-48.53-51.14-48.53-77.69,0-36.07,30.16-61.98,75.72-61.98,21.31,0,35.08,3.28,43.61,5.57,2.96.67,4.6,1.64,4.6,3.95,0,4.25-1.32,13.77-1.32,39.33,0,7.21-.99,9.84-3.6,9.84-2.29,0-3.28-1.96-3.28-5.92,0-2.93-1.64-13.1-8.53-21.63-4.92-6.24-14.42-16.06-35.72-16.06-24.26,0-39.03,14.1-39.03,33.76,0,15.09,7.56,26.55,34.75,47.21l9.2,6.89c39.65,29.83,53.75,52.46,53.75,83.61,0,19.02-7.21,41.64-30.8,57.05-16.41,10.49-34.75,13.42-52.13,13.42-19.02,0-33.76-2.29-47.88-8.53Z"/>
    </g>
    <g>
      <path class="cls-1" d="M3471.72,1611.44c0,37.09,0,57.08,6.07,62.3,4.95,4.35,12.48,6.36,35.08,6.36,15.36,0,26.65-.27,33.91-8.1,3.46-3.78,6.94-11.88,7.53-17.4.27-2.59.87-4.33,3.18-4.33,2.04,0,2.31,1.44,2.31,4.92,0,3.18-2.01,24.91-4.35,33.31-1.74,6.39-3.18,7.83-18.25,7.83-20.86,0-35.92-.57-48.97-.87-13.03-.57-23.47-.87-35.35-.87-3.18,0-9.57,0-16.51.3-6.66,0-14.22.57-20.01.57-3.75,0-5.79-.87-5.79-2.91,0-1.44,1.17-2.31,4.65-2.31,4.35,0,7.81-.57,10.42-1.14,5.79-1.17,7.26-7.56,8.4-15.96,1.47-12.16,1.47-35.05,1.47-61.7v-51.01c0-44.05,0-52.16-.6-61.43-.57-9.84-2.88-14.49-12.46-16.51-2.31-.6-5.79-.87-9.57-.87-3.18,0-4.92-.6-4.92-2.61s2.04-2.61,6.39-2.61c13.62,0,31.87.87,39.7.87,6.94,0,28.09-.87,39.4-.87,4.05,0,6.09.57,6.09,2.61s-1.74,2.61-5.22,2.61c-3.18,0-7.83.27-11.31.87-7.81,1.44-10.14,6.36-10.71,16.51-.57,9.27-.57,17.38-.57,61.43v51.01Z"/>
      <path class="cls-1" d="M3702.45,1619.84c-1.44,0-2.04.57-2.61,2.31l-15.64,41.44c-2.91,7.23-4.35,14.2-4.35,17.68,0,5.22,2.61,8.97,11.58,8.97h4.35c3.48,0,4.35.57,4.35,2.31,0,2.34-1.74,2.91-4.95,2.91-9.27,0-21.73-.87-30.7-.87-3.18,0-19.12.87-34.21.87-3.75,0-5.49-.57-5.49-2.91,0-1.74,1.17-2.31,3.48-2.31,2.61,0,6.66-.3,8.97-.57,13.33-1.74,18.84-11.58,24.64-26.08l72.74-181.98c3.48-8.4,5.22-11.61,8.1-11.61,2.61,0,4.35,2.61,7.23,9.27,6.96,15.96,53.33,134.17,71.87,178.22,11.01,26.08,19.42,30.13,25.51,31.6,4.35.85,8.7,1.14,12.18,1.14,2.31,0,3.75.3,3.75,2.31,0,2.34-2.61,2.91-13.33,2.91s-31.6,0-54.77-.57c-5.22-.3-8.7-.3-8.7-2.34,0-1.74,1.17-2.31,4.05-2.61,2.04-.57,4.08-3.18,2.61-6.66l-23.17-61.43c-.6-1.44-1.47-2.01-2.91-2.01h-64.61ZM3761.57,1605.35c1.44,0,1.74-.87,1.44-1.74l-26.08-71.57c-.3-1.17-.57-2.61-1.44-2.61s-1.47,1.44-1.74,2.61l-26.68,71.27c-.27,1.17,0,2.04,1.17,2.04h53.33Z"/>
      <path class="cls-1" d="M4119.83,1676.05c0,7.83-.3,8.4-3.78,10.44-18.82,9.84-47.23,13.03-69.83,13.03-70.98,0-133.87-33.61-133.87-113.59,0-46.36,24.06-78.83,50.42-94.77,27.82-16.81,53.62-18.82,77.96-18.82,19.99,0,45.49,3.48,51.29,4.62,6.09,1.17,16.23,2.91,22.9,3.18,3.48.3,4.05,1.47,4.05,3.48,0,3.18-2.04,11.31-2.04,47.53,0,4.62-.87,6.09-3.18,6.09-2.01,0-2.61-1.47-2.88-3.78-.87-6.66-2.34-15.94-9.87-24.04-8.68-9.27-31.87-22.62-64.61-22.62-15.94,0-37.09,1.17-57.38,17.97-16.23,13.62-26.65,35.35-26.65,71,0,62.3,39.7,108.96,100.83,108.96,7.53,0,17.68,0,24.64-3.21,4.35-2.01,5.49-5.79,5.49-10.71v-27.22c0-14.49,0-25.51-.27-34.21-.3-9.84-2.91-14.49-12.48-16.51-2.31-.6-7.23-.87-11.29-.87-2.61,0-4.35-.6-4.35-2.34,0-2.31,2.04-2.88,6.09-2.88,15.07,0,33.31.87,42.01.87s24.34-.87,33.91-.87c3.75,0,5.79.57,5.79,2.88,0,1.74-1.74,2.34-3.78,2.34-2.31,0-4.35.27-7.81.87-7.83,1.44-10.74,6.36-11.01,16.51-.3,8.7-.3,20.29-.3,34.78v31.87Z"/>
      <path class="cls-1" d="M4242.89,1560.42c0-44.05,0-52.16-.57-61.43-.57-9.84-2.88-14.49-12.46-16.51-2.31-.6-7.26-.87-11.31-.87-3.18,0-4.92-.6-4.92-2.61s2.04-2.61,6.39-2.61c15.34,0,33.61.87,42.29.87,6.96,0,25.21-.87,35.65-.87,4.35,0,6.39.57,6.39,2.61s-1.74,2.61-4.65,2.61c-3.18,0-4.92.27-8.4.87-7.83,1.44-10.14,6.36-10.71,16.51-.6,9.27-.6,17.38-.6,61.43v40.57c0,42.01,8.4,59.69,22.62,71.27,13.03,10.74,26.35,11.88,36.22,11.88,12.75,0,28.39-4.05,39.98-15.64,15.94-15.94,16.81-42.01,16.81-71.87v-36.22c0-44.05,0-52.16-.57-61.43-.57-9.84-2.91-14.49-12.46-16.51-2.34-.6-7.26-.87-10.44-.87s-4.92-.6-4.92-2.61,2.04-2.61,6.09-2.61c14.77,0,33.04.87,33.31.87,3.48,0,21.73-.87,33.04-.87,4.05,0,6.09.57,6.09,2.61s-1.74,2.61-5.22,2.61c-3.18,0-4.92.27-8.4.87-7.83,1.44-10.14,6.36-10.71,16.51-.6,9.27-.6,17.38-.6,61.43v31c0,32.17-3.18,66.38-27.52,87.23-20.58,17.68-41.44,20.86-60.26,20.86-15.36,0-43.18-.87-64.34-19.99-14.79-13.33-25.81-34.78-25.81-76.79v-42.31Z"/>
      <path class="cls-1" d="M4567.29,1656.06c.6,22.6,4.35,30.13,10.14,32.17,4.95,1.72,10.44,2.01,15.07,2.01,3.21,0,4.95.57,4.95,2.31,0,2.34-2.61,2.91-6.66,2.91-18.84,0-30.43-.87-35.95-.87-2.61,0-16.23.87-31.3.87-3.75,0-6.36-.3-6.36-2.91,0-1.74,1.74-2.31,4.62-2.31,3.78,0,9-.3,13.05-1.44,7.53-2.31,8.7-10.71,8.97-35.95l2.61-171.54c0-5.79.87-9.84,3.78-9.84,3.18,0,5.79,3.75,10.71,8.97,3.48,3.78,47.53,51.01,89.82,93.03,19.71,19.69,58.84,61.43,63.77,66.05h1.44l-2.91-130.09c-.27-17.68-2.88-23.19-9.84-26.08-4.35-1.74-11.29-1.74-15.36-1.74-3.48,0-4.62-.87-4.62-2.61,0-2.31,3.18-2.61,7.53-2.61,15.07,0,28.99.87,35.05.87,3.21,0,14.2-.87,28.42-.87,3.75,0,6.66.3,6.66,2.61,0,1.74-1.74,2.61-5.22,2.61-2.91,0-5.22,0-8.7.87-8.1,2.31-10.42,8.4-10.71,24.61l-3.18,182.85c0,6.39-1.17,9-3.78,9-3.18,0-6.66-3.18-9.84-6.39-18.25-17.38-55.34-55.34-85.49-85.2-31.57-31.27-63.74-67.5-68.96-73.01h-.87l3.18,121.72Z"/>
      <path class="cls-1" d="M4898.66,1619.84c-1.44,0-2.04.57-2.61,2.31l-15.64,41.44c-2.91,7.23-4.35,14.2-4.35,17.68,0,5.22,2.61,8.97,11.58,8.97h4.35c3.48,0,4.35.57,4.35,2.31,0,2.34-1.74,2.91-4.95,2.91-9.27,0-21.73-.87-30.7-.87-3.18,0-19.12.87-34.21.87-3.75,0-5.49-.57-5.49-2.91,0-1.74,1.17-2.31,3.48-2.31,2.61,0,6.66-.3,8.97-.57,13.33-1.74,18.84-11.58,24.64-26.08l72.74-181.98c3.48-8.4,5.22-11.61,8.1-11.61,2.61,0,4.35,2.61,7.26,9.27,6.94,15.96,53.3,134.17,71.85,178.22,11.01,26.08,19.42,30.13,25.51,31.6,4.35.85,8.7,1.14,12.18,1.14,2.31,0,3.75.3,3.75,2.31,0,2.34-2.61,2.91-13.33,2.91s-31.6,0-54.77-.57c-5.22-.3-8.7-.3-8.7-2.34,0-1.74,1.17-2.31,4.05-2.61,2.04-.57,4.08-3.18,2.61-6.66l-23.17-61.43c-.6-1.44-1.44-2.01-2.91-2.01h-64.61ZM4957.78,1605.35c1.44,0,1.74-.87,1.44-1.74l-26.08-71.57c-.3-1.17-.57-2.61-1.44-2.61s-1.47,1.44-1.74,2.61l-26.68,71.27c-.27,1.17,0,2.04,1.17,2.04h53.33Z"/>
    </g>
  </g>
  <g>
    <g>
      <g>
        <path class="cls-1" d="M2062.76,787.89s-.75,5.8-2.15,16.74c-.75,5.45-1.45,12.2-2.7,20.09-.25,1.65-.55,3.35-.85,5.1v.05c-1.1,6.6-2.3,13.9-3.65,21.94-.85,5.1-1.75,10.45-2.7,16.05-.45,2.8-.95,5.7-1.4,8.65-.6,2.9-1.2,5.85-1.85,8.9-2.4,11.6-4.95,23.99-7.65,37.24-.05,0,0,.05,0,.05-.15.7-.3,1.4-.45,2.1-1.35,7.05-3.3,14.2-5.1,21.64-1.1,4.45-2.25,9-3.35,13.6-.75,3.05-1.5,6.15-2.3,9.25-3.55,15.75-8.65,31.94-13.5,48.98-7.35,24.94-15.84,51.18-25.69,78.43,0,.05-.05.1-.1.15-4.4,12.4-9.1,24.99-14.15,37.74-14,35.44-30.19,72.08-48.98,108.97-3.2,6.05-6.45,12.15-9.7,18.24-2.05,3.8-4.05,7.65-6.1,11.45-2.7,5-5.25,10.05-8.05,15-2.25,3.8-4.5,7.65-6.8,11.45-.65,1.1-1.3,2.2-1.95,3.3-5.8,9.9-11.7,19.84-17.59,29.84-6.35,9.7-12.75,19.44-19.14,29.24-3.25,4.9-6.45,9.85-9.65,14.75-3.45,4.8-6.9,9.55-10.4,14.35-5.75,7.95-11.5,15.95-17.29,23.89-1.2,1.65-2.35,3.25-3.55,4.9-7.45,9.3-14.9,18.59-22.34,27.89l-2.45,3.05-8.8,10.9-11.9,13.4c-8,8.9-15.79,17.99-23.94,26.79-8.35,8.5-16.74,17.04-25.14,25.54-4.25,4.2-8.25,8.65-12.7,12.6l-10.75,9.8-2.45,2.25-13.2,12c-4.4,3.95-8.6,8.15-13.3,11.8-2.35,1.9-4.7,3.8-7.05,5.7-15.89,13.05-31.59,26.29-48.29,37.84-4.75,3.45-9.4,6.85-14.1,10.25-4.7,3.4-9.25,6.9-14.2,9.9-9.65,6.25-19.29,12.45-28.79,18.54-1.05.7-2,1.4-3.05,2.05q-.05,0-.1.05c-8.45,5.5-17.29,10.2-25.89,15.1-6,3.35-11.9,6.75-17.79,10.05-3.75,2.1-7.45,4.15-11.2,6.15-9.85,4.8-19.59,9.55-29.24,14.3-4.85,2.35-9.65,4.65-14.4,7-4.8,2.3-9.75,4.15-14.55,6.2-17.34,7.15-34.14,14.55-50.98,20.29,0,.05-.1,0-.1,0-2,.7-3.9,1.35-5.9,2-9.4,3.25-18.59,6.45-27.69,9.55-5.45,1.8-10.85,3.35-16.29,4.85h-.05c-1.55.4-3.15.85-4.7,1.25v-5.9c-1.05-1.1-2.1-2.15-3.1-3.25-.65.3-1.3.55-1.95.85.15-.8.3-1.55.5-2.35-.55-.6-1.15-1.25-1.7-1.85.7-.1,1.45-.2,2.15-.25.7-3.65,1.5-7.2,2.4-10.7.55-.15,1.15-.3,1.7-.45,1.1-.3,2.2-.6,3.3-.9,2.2-.6,4.45-1.2,6.7-1.8,2.2-.6,4.4-1.45,6.6-2.15,8.9-3,17.89-6.05,27.09-9.1,1-.35,2-.7,3.05-1.05h.05c3.55-1.2,7.15-2.4,10.75-3.6,4.7-1.45,9.15-3.6,13.8-5.4,9.25-3.75,18.59-7.5,28.09-11.35,9.6-3.6,18.79-8.35,28.29-12.8,9.45-4.5,18.99-9.1,28.64-13.7,2.9-1.6,5.8-3.2,8.7-4.8,6.5-3.6,13.05-7.2,19.64-10.85,4.75-2.6,9.55-5.25,14.35-7.9,2.95-1.7,5.85-3.55,8.7-5.35,1.8-1.15,3.6-2.3,5.4-3.4,9.35-5.9,18.79-11.85,28.29-17.84,9.35-6.25,18.39-13,27.69-19.54,4.6-3.3,9.25-6.65,13.9-9.95,4.7-3.3,9-7.1,13.55-10.6,6.05-4.85,12.1-9.7,18.14-14.6,2.9-2.3,5.85-4.7,8.8-7.05,8.8-7.55,17.34-15.44,26.04-23.14l.65-.6s.05,0,.05-.05l12.35-11.05c4.2-4,8.3-8.2,12.45-12.3,8.3-8.25,16.59-16.54,24.89-24.79l23.54-26.09c3.95-4.4,7.95-8.65,11.75-13.1l7.4-9,3.75-4.6c7.35-9.1,14.85-18.04,22.09-27.24.8-1.05,1.55-2.15,2.35-3.2,0,0,.05-.05.05-.1,6.15-8.25,12.25-16.54,18.34-24.74,3.4-4.7,6.95-9.3,10.2-14.05,3.2-4.85,6.4-9.65,9.6-14.4,6.4-9.6,12.85-19.09,19.04-28.64,5.9-9.8,11.75-19.49,17.59-29.14.35-.6.7-1.15,1.05-1.75,2.55-4.25,5.1-8.5,7.65-12.7,2.7-4.95,5.35-9.85,8-14.75,1.8-3.3,3.6-6.5,5.35-9.8.05-.05.05-.1.05-.1,3.5-6.4,7-12.8,10.45-19.19,18.49-35.84,34.64-71.43,48.63-105.92,5.25-12.9,10.15-25.64,14.8-38.19.05-.05.05-.1.05-.15,9.9-26.79,18.49-52.63,25.94-77.13,6-19.79,11.3-38.74,15.95-56.63v-.05c3.4-12.9,6.4-25.19,9.1-36.94,6.3-26.94,10.85-50.73,14.2-70.38,1.4-7.9,2.7-15.1,3.8-21.59v-.05c.35-1.75.65-3.4.95-5.05,1.25-7.8,2-14.5,2.8-19.89,1.5-10.75,2.3-16.5,2.3-16.5l11.4,1.45Z"/>
        <path class="cls-1" d="M2069.39,597.72c-8.03,17.05-15.34,34.21-21.02,51.93-6.11,17.71-11.07,35.97-13.31,55.4-1.33,9.7-2.38,19.67-2.54,30.04-.28,10.36.5,21.14,1.46,32.34.91,11.2,2.63,22.89,5.24,35.21,1.27,6.15,2.92,12.48,4.52,18.94,1.53,6.45,3.3,13.07,5.31,19.89,4.17-5.79,8.06-11.55,11.68-17.29,3.55-5.74,6.56-11.5,9.47-17.19,5.75-11.39,10.51-22.63,14.36-33.66,3.8-11.04,6.09-21.94,7.96-32.58,1.74-10.65,2.89-21.06,3.05-31.25-.1-20.42-2.55-39.87-7.14-58.44-5-18.59-11.66-36.3-19.04-53.35Z"/>
        <path class="cls-1" d="M1933.11,762.97c.4,8.35,1.01,16.71,1.91,25.08.93,8.37,2.19,16.75,3.37,25.04,2.52,16.62,7.09,33.31,13.53,49.91,6.22,16.56,15.01,33.17,27.22,49.93,12.02,16.71,26.89,33.44,46.41,50.47,1.48-13.91,2.41-26.85,2.02-39.07-.51-12.25-1.76-23.64-3.66-34.25-3.49-21.16-11.02-39.48-19.73-55.22-4.42-7.89-9.29-15.16-14.53-21.93-5.34-6.78-11.26-13.08-17.32-18.95-12.19-11.74-25.47-21.83-39.22-31.03Z"/>
        <path class="cls-1" d="M2183.34,793.54c-2.77,9.51-5.73,18.93-8.97,28.18-3.23,9.26-6.7,18.35-11.07,27.14-8.56,17.6-18.28,34.3-30.92,49.27-12.87,14.93-27.97,28.24-46.02,39.22-18.24,10.94-39.99,19.42-65.03,24.97,5.12-12.93,10.91-24.7,16.44-35.66,5.41-10.98,11.18-21.01,17.26-30.23,12.46-18.37,24.7-33.73,38.58-46.62,6.87-6.46,14-12.32,21.32-17.7,7.22-5.4,14.44-10.34,21.94-14.89,14.95-9.11,30.58-16.71,46.47-23.69Z"/>
        <path class="cls-1" d="M1902.49,927.01c-.56,8.32-.86,16.71-.97,25.1-.38,8.31-.45,16.66-.11,25.07.34,8.41,1.1,16.88,2.37,25.43,1.11,8.49,2.49,16.96,4.64,25.58,8.95,34.64,25.8,70.08,60.2,109.19,3.21-13.64,5.46-26.48,6.85-38.58.64-6.07,1.29-11.87,1.34-17.64.07-5.76-.06-11.34-.37-16.74-1.28-21.62-5.23-40.34-12.42-57.23-6.92-16.8-15.93-31.39-26.27-44.48-10.62-13.16-22.72-24.87-35.27-35.71Z"/>
        <path class="cls-1" d="M2146.89,988.8c-3.87,9.14-7.85,18.18-12.21,26.99-4.63,8.75-9.52,17.29-14.76,25.55-5.24,8.26-10.82,16.22-16.84,23.81-6.18,7.54-13.06,14.62-20.28,21.26-28.55,26.7-67.4,44.93-118.21,49.33,6.69-12.17,13.59-23.22,20.7-33.29,3.5-5.05,7.27-9.78,10.69-14.43,3.44-4.64,6.94-9.05,10.49-13.24,14.17-16.79,29.48-30.1,44.33-41.31,15.12-11.12,30.96-19.77,47.23-26.88,15.99-7.17,32.27-12.81,48.85-17.78Z"/>
        <path class="cls-1" d="M1851.47,1084.83l-1.09,6.15-1.26,6.05c-.82,4.04-1.57,8.11-2.25,12.19-1.36,8.17-2.43,16.43-3.1,24.81-.51,8.46-1.37,16.65-1.38,25.17-.08,8.49.34,17.13,1.36,25.97.49,4.41,1.22,8.92,1.96,13.39.68,4.44,1.52,8.93,2.54,13.49,2.04,9.11,4.79,18.48,8.34,28.13,3.52,9.63,7.97,19.63,13.08,29.82,5,10.12,10.91,20.59,17.83,31.44,2.74-6.42,5.2-12.69,7.41-18.8,1.98-6.24,3.67-12.34,5.15-18.27,2.94-11.86,4.93-23.1,6.07-33.74,1.66-21.62-.24-40.97-4.42-58.33-4.47-17.5-11.81-33.33-20.37-47.67-8.72-14.41-18.56-27.3-29.87-39.81Z"/>
        <path class="cls-1" d="M2085.43,1178.71l-3.74,6.46-4.07,6.31c-2.74,4.18-5.52,8.31-8.36,12.39-5.68,8.15-11.6,16.05-17.82,23.62-6.06,7.63-13.21,14.62-20.36,21.3-7.23,6.65-14.83,12.85-22.85,18.5-4.03,2.81-8.09,5.53-12.41,8.02-4.39,2.46-8.89,4.77-13.52,6.91-9.25,4.28-18.97,7.9-29.24,10.73-10.3,2.81-21,4.92-32.54,6-11.66,1.02-23.89,1.15-36.77.29,4.35-5.44,8.71-10.6,13.07-15.5,4.14-5.03,8.26-9.81,12.42-14.32,8.31-9.04,16.69-17.09,25.15-24.29,16.3-14.7,32.74-26.05,49.65-34.86,16.62-8.93,33.12-15.56,50.16-20.47,16.88-4.97,34.4-8.21,51.22-11.08Z"/>
        <path class="cls-1" d="M1779.42,1232.36c-2.83,7.66-5.48,15.41-7.86,23.3l-3.43,11.89c-1.2,3.9-2.32,7.84-3.35,11.83-2.05,7.98-3.72,16.14-4.93,24.55-.62,4.19-1.06,8.49-1.48,12.77-.51,4.21-.89,8.49-1.13,12.84-.48,8.71-.4,17.72.33,27.1.67,9.33,2.27,19.25,3.98,29.09,3.68,19.89,10.32,41.54,20.6,65.39,7.27-11.98,13.37-23.49,18.41-34.54,2.61-5.45,4.58-11.08,6.37-16.54,1.79-5.46,3.34-10.8,4.65-16.02,2.59-10.47,4.41-20.37,5.15-30.04.56-9.8.34-19.15-.55-28.11-3.2-35.61-18.74-66.1-36.78-93.51Z"/>
        <path class="cls-1" d="M1997.08,1359.52c-6.41,7.81-12.95,15.46-19.69,22.83-3.41,3.66-6.69,7.35-10.35,10.78-3.65,3.44-7.36,6.79-11.12,10.05-7.53,6.51-15.31,12.64-23.37,18.25-4.05,2.8-8.11,5.51-12.36,8.01-4.35,2.44-8.78,4.73-13.29,6.87-9.02,4.28-18.37,7.93-28.08,10.83-9.78,2.85-19.61,5.17-30.51,6.15-21.52,2.15-44.58.8-69.49-4.98,10.12-9.51,20.11-17.89,30.01-25.3,4.94-3.68,9.72-7.25,14.36-10.72,4.69-3.4,9.37-6.57,14.03-9.52,9.3-5.93,18.7-10.9,27.81-15.33,8.92-4.55,17.84-8.34,26.76-11.52,36.05-12.47,70.3-15.93,105.3-16.41Z"/>
        <path class="cls-1" d="M1686.79,1365.14l-5.65,10.77c-1.98,3.48-3.91,7-5.78,10.57-3.74,7.14-7.22,14.47-10.38,22.06-1.61,3.76-3,7.73-4.54,11.5-1.55,3.77-3.01,7.61-4.36,11.53-2.71,7.85-5,16.03-6.81,24.61-.9,4.29-1.68,8.69-2.33,13.19-.76,4.38-1.43,8.82-1.94,13.41-1.03,9.17-1.49,18.83-1.33,29.06.13,10.2,1.03,21.12,2.39,32.4,1.27,11.17,3.25,23.01,6.01,35.57,4.79-5.09,9.26-10.12,13.43-15.09,3.97-5.2,7.6-10.39,10.98-15.47,6.74-10.19,12.36-20.08,16.96-29.69,8.51-19.95,13-38.72,14.53-56.35,1.04-18.13-.88-35.19-4.65-51.35-1.89-8.09-4.26-15.96-6.98-23.67-2.84-7.82-6.1-15.53-9.54-23.06Z"/>
        <path class="cls-1" d="M1880.63,1526.32c-3.78,3.42-7.49,6.86-11.4,10.1-4,3.19-8.02,6.32-12.09,9.37-8.12,6.1-16.39,11.88-24.83,17.24-4.25,2.65-8.4,5.31-12.87,7.62-4.48,2.3-9,4.48-13.57,6.52-9.14,4.08-18.47,7.59-28.01,10.42-4.77,1.41-9.59,2.65-14.46,3.71-4.99.94-10.09,1.64-15.21,2.16-10.25,1.04-20.72,1.26-31.39.53-10.71-.76-21.5-2.31-32.76-5.21-11.36-3.01-22.93-7.07-34.72-12.32,5.96-3.61,11.83-6.95,17.62-10.05,5.6-3.33,11.07-6.46,16.51-9.32,10.87-5.74,21.49-10.53,31.91-14.52,20.14-8.69,39.54-14.09,58.54-17.08,18.47-3.46,36.49-4.51,54.32-3.99,8.91.25,17.77.89,26.58,1.8,8.68.81,17.24,1.82,25.84,3.03Z"/>
        <path class="cls-1" d="M1574.26,1477.85c-10.29,11.99-19.63,25.25-29.02,38.1-9.22,13.1-16.94,28.12-24.14,43.47-3.49,7.86-6.58,16.22-9.24,25.18-1.33,4.48-2.55,9.11-3.65,13.9-1.13,4.75-2.28,9.41-3.22,14.38-3.87,19.76-5.76,42.32-5.25,68.36,11.22-8.42,21.19-16.83,29.97-25.2,2.2-2.09,4.32-4.18,6.37-6.27,2.03-2.12,3.88-4.42,5.72-6.62,3.65-4.43,7.03-8.84,10.14-13.23,6.23-8.76,11.41-17.42,15.66-25.97,4.02-8.9,7.06-17.75,9.37-26.4,2.3-8.67,3.81-17.19,4.68-25.59.43-4.21.72-8.34.81-12.52.03-4.26-.08-8.49-.31-12.69-.94-16.79-3.9-33.04-7.87-48.91Z"/>
        <path class="cls-1" d="M1735.08,1671.98c-17.89,10.47-35.55,20.65-54.89,27.41-19.12,6.99-38.13,12.71-58.55,13.94-10.08.79-20.22.86-30.39.07-5.09-.39-10.18-1-15.29-1.83-5.13-.88-10.41-2.22-15.62-3.68-20.89-5.95-41.81-15.79-62.63-30.51,12.92-5.04,25.3-9.1,37.26-12.29,2.99-.8,5.95-1.55,8.88-2.24,2.88-.78,5.71-1.54,8.51-2.3,5.6-1.46,11.12-2.72,16.55-3.78,10.86-2.12,21.38-3.47,31.63-4.16,10.01-1.05,19.7-1.5,29.21-1.33,9.51.16,18.81.89,27.94,2.08,4.56.59,9.11,1.33,13.56,2.09,4.38.69,8.74,1.48,13.06,2.37,17.29,3.55,34.11,8.58,50.77,14.17Z"/>
        <path class="cls-1" d="M1441.86,1614.73c-2.6,16.24-7.15,32.99-15.15,48.98-8.2,15.6-19.54,31.29-35.24,46.14-3.15,2.75-6.5,5.5-10,8.25h-.05c-5.3,4.15-11.05,8.25-17.19,12.3-5.15,3.35-10.5,6.7-16.24,9.85-1.8.9-3.65,1.8-5.55,2.7-2.5,1.2-5.1,2.4-7.75,3.55-1,.45-2.05.9-3.1,1.35-.65.3-1.3.55-1.95.85.15-.8.3-1.55.5-2.35.1-.7.25-1.4.45-2.1.7-3.65,1.5-7.2,2.4-10.7.5-2.3,1.1-4.6,1.7-6.85,1.15-4.45,2.35-8.8,3.65-13,3.25-10.85,6.7-21.24,10.6-30.64,3.9-9.5,8.1-18.14,12.6-26.14,2.25-4,4.6-7.85,7-11.5,2.4-3.75,4.75-7.6,7.25-11.15,4.9-7.2,10.15-13.8,15.55-19.94,5.45-6.2,11.25-11.55,16.84-17.49,5.7-5.75,11.55-11.15,17.54-16.24,6-5.15,12.35-9.7,18.24-15.05,1,16.74.45,32.79-2.1,49.18Z"/>
        <path class="cls-1" d="M1562.42,1788.08c-9.6,3.85-19.69,6.55-29.64,9.25-10,2.6-19.99,4.85-29.99,6.65-9.85,2-20.19,2.5-30.24,2.85-10.1.25-20.19-.15-30.14-1.2-5-.6-9.9-1.2-14.9-2.25-5-1.15-9.95-2.5-14.9-4.05-9.9-3.05-19.64-7-29.19-11.9-9.55-4.9-18.84-10.6-28.04-17.74-5.4-4.3-10.7-8.9-15.95-13.95h-.05c-1.55-1.55-3.15-3.1-4.7-4.65-1.05-1.1-2.1-2.15-3.1-3.25-.5-.5-.95-1-1.45-1.5-.55-.6-1.15-1.25-1.7-1.85.7-.1,1.45-.2,2.15-.25,1.4-.2,2.75-.35,4.1-.5,2.65-.3,5.2-.6,7.75-.8,2.1-.25,4.15-.45,6.2-.6,6.45-.8,12.7-1.55,18.84-2,7.5-.6,14.8-.95,21.84-1,0,0,.1.05.1,0,4.5,0,8.85.1,13.15.25,21.99.1,41.99,2.45,60.73,7.1,18.54,4.2,35.59,9.8,52.03,17.09,16.34,7.2,32.09,15.89,47.09,24.29Z"/>
      </g>
      <g>
        <path class="cls-1" d="M853.22,1746.29c.2.8.35,1.6.5,2.4-.65-.3-1.3-.55-1.95-.85-.8.85-1.65,1.7-2.5,2.55v6.8c-1.75-.5-3.55-1-5.3-1.45h-.05c-5.45-1.5-10.85-3.05-16.34-4.85-9.05-3.1-18.24-6.3-27.64-9.55-2-.65-3.55-1.3-5.55-2,0,0-.05.05-.1,0q-.05.05-.1,0t-.1,0-.1,0h-.05c-16.84-5.75-33.64-13.15-50.98-20.29-4.85-2.05-9.8-3.9-14.55-6.2-4.8-2.35-9.6-4.65-14.4-7-9.65-4.75-19.39-9.5-29.24-14.3-3.75-2-7.5-4.05-11.25-6.15-5.9-3.3-11.8-6.7-17.74-10.05-8.6-4.9-17.44-9.6-25.89-15.1q-.05-.05-.1-.05c-1.05-.65-2-1.35-3.05-2.05-9.55-6.1-19.14-12.3-28.84-18.54-4.9-3-9.45-6.5-14.15-9.9-4.7-3.4-9.4-6.8-14.1-10.25-16.69-11.55-32.39-24.79-48.29-37.84-2.35-1.9-4.7-3.8-7.05-5.7-4.7-3.65-8.9-7.85-13.35-11.8l-13.15-12-2.45-2.25-10.75-9.8c-4.45-3.95-8.45-8.4-12.7-12.6-8.4-8.5-16.79-17.04-25.19-25.54-8.1-8.8-15.95-17.89-23.89-26.79l-11.9-13.4-8.8-10.9-2.45-3.05c-7.5-9.3-14.95-18.59-22.34-27.89-1.2-1.65-2.4-3.2-3.55-4.85v-.05c-5.8-7.95-11.6-15.95-17.34-23.89-3.45-4.8-6.9-9.55-10.35-14.35-3.2-4.9-6.45-9.85-9.65-14.75-6.4-9.8-12.8-19.54-19.14-29.24-5.95-10-11.8-19.94-17.64-29.84-.65-1.1-1.3-2.2-1.95-3.3-2.25-3.8-4.5-7.65-6.75-11.45-2.8-4.95-5.4-10-8.05-15-2.05-3.8-4.1-7.65-6.1-11.45-3.3-6.1-6.5-12.2-9.75-18.24-18.79-36.89-34.94-73.53-48.93-108.97-5.1-12.85-9.85-25.49-14.35-37.94v-.05c-9.8-27.24-18.29-53.43-25.64-78.33-4.85-17.04-9.9-33.24-13.5-48.98-.75-3.1-1.5-6.2-2.3-9.25-1.1-4.6-2.2-9.15-3.3-13.6-1.8-7.45-3.8-14.6-5.1-21.64-.15-.65-.25-1.25-.4-1.9v-.05c-2.75-13.3-5.3-25.79-7.7-37.44-.65-3.05-1.25-6-1.85-8.9-.5-2.95-.95-5.85-1.45-8.65-.9-5.6-1.8-10.95-2.65-16.05-1.35-8.05-2.55-15.4-3.7-22.04-.3-1.75-.55-3.4-.85-5.05-1.2-7.9-1.9-14.65-2.65-20.09-1.4-10.95-2.15-16.74-2.15-16.74l11.4-1.45s.8,5.75,2.25,16.5c.8,5.4,1.55,12.1,2.85,19.89.3,1.6.6,3.25.9,5,1.15,6.5,2.4,13.8,3.8,21.69,3.35,19.69,8,43.39,14.25,70.43q-.05.05,0,.1c2.7,11.7,5.7,23.99,9.05,36.84,4.65,17.89,9.95,36.84,15.95,56.63,7.5,24.54,16.09,50.38,25.99,77.18,0,0,.05.05.05.1,4.65,12.55,9.55,25.29,14.8,38.19,13.95,34.49,30.09,70.08,48.63,105.92,3.45,6.4,6.95,12.8,10.45,19.19,0,0,0,.05.05.1,1.75,3.3,3.55,6.5,5.35,9.8,2.65,4.9,5.3,9.8,8,14.75,2.5,4.2,5.1,8.45,7.65,12.7.35.6.7,1.15,1.05,1.75,5.8,9.65,11.7,19.34,17.59,29.14,6.15,9.55,12.65,19.04,18.99,28.64,3.2,4.75,6.4,9.55,9.65,14.4,3.2,4.75,6.8,9.35,10.2,14.05,6.1,8.2,12.2,16.5,18.29,24.74.8,1.1,1.65,2.2,2.45,3.3,7.2,9.2,14.75,18.14,22.09,27.24l3.75,4.55,7.35,9.05c3.85,4.45,7.85,8.7,11.75,13.1l23.59,26.09c8.3,8.25,16.59,16.54,24.89,24.79,4.15,4.1,8.2,8.3,12.45,12.3l12.3,11c0,.05.05.05.05.05l.7.65c8.7,7.7,17.19,15.6,25.99,23.14,2.95,2.35,5.85,4.7,8.8,7.05,6.1,4.9,12.15,9.75,18.19,14.6,4.55,3.5,8.85,7.3,13.5,10.6,4.65,3.3,9.3,6.65,13.95,9.95,9.3,6.55,18.34,13.3,27.69,19.54,9.5,6,18.94,11.95,28.29,17.84,1.8,1.1,3.6,2.25,5.35,3.4,2.9,1.8,5.75,3.65,8.7,5.35,4.8,2.65,9.6,5.3,14.4,7.9,6.55,3.65,13.15,7.25,19.64,10.85,2.9,1.6,5.8,3.2,8.7,4.8,9.65,4.6,19.19,9.2,28.64,13.7,9.45,4.45,18.69,9.2,28.29,12.8,9.45,3.85,18.79,7.6,28.04,11.35,4.65,1.8,9.15,3.95,13.85,5.4,3.6,1.2,7.15,2.4,10.7,3.6h.05c1.05.35,2.05.7,3.1,1.05,9.15,3.05,18.19,6.1,27.04,9.1,2.25.7,4.4,1.55,6.65,2.15,2.25.6,4.5,1.2,6.7,1.8l3.9,1.05c.35.1.75.2,1.1.3.9,3.5,1.7,7.05,2.4,10.7.7.05,1.4.15,2.1.25-.55.6-1.1,1.2-1.65,1.8Z"/>
        <path class="cls-1" d="M113.96,597.72c8.03,17.05,15.34,34.21,21.02,51.93,6.11,17.71,11.07,35.97,13.31,55.4,1.33,9.7,2.38,19.67,2.54,30.04.28,10.36-.5,21.14-1.46,32.34-.91,11.2-2.63,22.89-5.24,35.21-1.27,6.15-2.92,12.48-4.52,18.94-1.53,6.45-3.3,13.07-5.31,19.89-4.17-5.79-8.06-11.55-11.68-17.29-3.55-5.74-6.56-11.5-9.47-17.19-5.75-11.39-10.51-22.63-14.36-33.66-3.8-11.04-6.09-21.94-7.96-32.58-1.74-10.65-2.89-21.06-3.05-31.25.1-20.42,2.55-39.87,7.14-58.44,5-18.59,11.66-36.3,19.04-53.35Z"/>
        <path class="cls-1" d="M250.23,762.97c-.4,8.35-1.01,16.71-1.91,25.08-.92,8.37-2.19,16.75-3.37,25.04-2.52,16.62-7.09,33.31-13.53,49.91-6.22,16.56-15.01,33.17-27.22,49.93-12.02,16.71-26.89,33.44-46.41,50.47-1.48-13.91-2.41-26.85-2.02-39.07.52-12.25,1.76-23.64,3.66-34.25,3.49-21.16,11.02-39.48,19.73-55.22,4.42-7.89,9.29-15.16,14.53-21.93,5.34-6.78,11.26-13.08,17.32-18.95,12.19-11.74,25.47-21.83,39.22-31.03Z"/>
        <path class="cls-1" d="M0,793.54c2.77,9.51,5.73,18.93,8.97,28.18,3.23,9.26,6.7,18.35,11.07,27.14,8.56,17.6,18.28,34.3,30.92,49.27,12.87,14.93,27.97,28.24,46.02,39.22,18.24,10.94,39.99,19.42,65.03,24.97-5.12-12.93-10.91-24.7-16.44-35.66-5.42-10.98-11.18-21.01-17.26-30.23-12.46-18.37-24.7-33.73-38.58-46.62-6.87-6.46-14-12.32-21.32-17.7-7.22-5.4-14.44-10.34-21.94-14.89-14.95-9.11-30.58-16.71-46.47-23.69Z"/>
        <path class="cls-1" d="M280.85,927.01c.56,8.32.86,16.71.97,25.1.38,8.31.45,16.66.11,25.07-.34,8.41-1.1,16.88-2.37,25.43-1.11,8.49-2.49,16.96-4.64,25.58-8.95,34.64-25.8,70.08-60.2,109.19-3.21-13.64-5.46-26.48-6.85-38.58-.64-6.07-1.29-11.87-1.34-17.64-.07-5.76.06-11.34.37-16.74,1.28-21.62,5.23-40.34,12.42-57.23,6.92-16.8,15.93-31.39,26.27-44.48,10.62-13.16,22.72-24.87,35.27-35.71Z"/>
        <path class="cls-1" d="M36.45,988.8c3.87,9.14,7.85,18.18,12.21,26.99,4.63,8.75,9.52,17.29,14.76,25.55,5.24,8.26,10.82,16.22,16.84,23.81,6.18,7.54,13.06,14.62,20.28,21.26,28.55,26.7,67.4,44.93,118.21,49.33-6.69-12.17-13.6-23.22-20.7-33.29-3.5-5.05-7.27-9.78-10.69-14.43-3.44-4.64-6.94-9.05-10.49-13.24-14.17-16.79-29.48-30.1-44.33-41.31-15.12-11.12-30.96-19.77-47.23-26.88-15.99-7.17-32.27-12.81-48.85-17.78Z"/>
        <path class="cls-1" d="M331.88,1084.83l1.09,6.15,1.26,6.05c.82,4.04,1.57,8.11,2.25,12.19,1.36,8.17,2.43,16.43,3.1,24.81.51,8.46,1.37,16.65,1.38,25.17.08,8.49-.34,17.13-1.37,25.97-.49,4.41-1.22,8.92-1.96,13.39-.68,4.44-1.52,8.93-2.54,13.49-2.04,9.11-4.79,18.48-8.34,28.13-3.52,9.63-7.97,19.63-13.08,29.82-5,10.12-10.91,20.59-17.83,31.44-2.74-6.42-5.2-12.69-7.41-18.8-1.98-6.24-3.67-12.34-5.15-18.27-2.94-11.86-4.93-23.1-6.07-33.74-1.66-21.62.24-40.97,4.42-58.33,4.47-17.5,11.81-33.33,20.37-47.67,8.72-14.41,18.56-27.3,29.87-39.81Z"/>
        <path class="cls-1" d="M97.92,1178.71l3.74,6.46,4.07,6.31c2.74,4.18,5.52,8.31,8.36,12.39,5.68,8.15,11.6,16.05,17.82,23.62,6.06,7.63,13.21,14.62,20.36,21.3,7.23,6.65,14.83,12.85,22.85,18.5,4.03,2.81,8.09,5.53,12.41,8.02,4.39,2.46,8.89,4.77,13.52,6.91,9.25,4.28,18.97,7.9,29.24,10.73,10.3,2.81,21,4.92,32.54,6,11.66,1.02,23.89,1.15,36.77.29-4.35-5.44-8.71-10.6-13.07-15.5-4.14-5.03-8.26-9.81-12.42-14.32-8.31-9.04-16.69-17.09-25.15-24.29-16.3-14.7-32.74-26.05-49.65-34.86-16.62-8.93-33.12-15.56-50.16-20.47-16.88-4.97-34.4-8.21-51.22-11.08Z"/>
        <path class="cls-1" d="M403.93,1232.36c2.83,7.66,5.48,15.41,7.86,23.3l3.43,11.89c1.2,3.9,2.32,7.84,3.34,11.83,2.05,7.98,3.72,16.14,4.93,24.55.62,4.19,1.06,8.49,1.48,12.77.51,4.21.89,8.49,1.13,12.84.48,8.71.4,17.72-.33,27.1-.67,9.33-2.27,19.25-3.98,29.09-3.68,19.89-10.32,41.54-20.6,65.39-7.27-11.98-13.37-23.49-18.41-34.54-2.61-5.45-4.58-11.08-6.37-16.54-1.79-5.46-3.33-10.8-4.65-16.02-2.59-10.47-4.41-20.37-5.15-30.04-.56-9.8-.34-19.15.55-28.11,3.2-35.61,18.74-66.1,36.78-93.51Z"/>
        <path class="cls-1" d="M186.26,1359.52c6.41,7.81,12.95,15.46,19.69,22.83,3.41,3.66,6.69,7.35,10.35,10.78,3.65,3.44,7.36,6.79,11.12,10.05,7.53,6.51,15.31,12.64,23.37,18.25,4.05,2.8,8.11,5.51,12.36,8.01,4.35,2.44,8.78,4.73,13.29,6.87,9.02,4.28,18.37,7.93,28.08,10.83,9.78,2.85,19.61,5.17,30.51,6.15,21.52,2.15,44.58.8,69.49-4.98-10.12-9.51-20.11-17.89-30.01-25.3-4.94-3.68-9.72-7.25-14.36-10.72-4.69-3.4-9.37-6.57-14.03-9.52-9.3-5.93-18.7-10.9-27.81-15.33-8.92-4.55-17.84-8.34-26.76-11.52-36.05-12.47-70.3-15.93-105.3-16.41Z"/>
        <path class="cls-1" d="M496.55,1365.14l5.65,10.77c1.98,3.48,3.91,7,5.78,10.57,3.74,7.14,7.23,14.47,10.38,22.06,1.61,3.76,3,7.73,4.54,11.5,1.55,3.77,3.01,7.61,4.36,11.53,2.71,7.85,5,16.03,6.81,24.61.9,4.29,1.68,8.69,2.33,13.19.76,4.38,1.43,8.82,1.94,13.41,1.03,9.17,1.49,18.83,1.33,29.06-.14,10.2-1.03,21.12-2.39,32.4-1.27,11.17-3.25,23.01-6.01,35.57-4.79-5.09-9.26-10.12-13.43-15.09-3.97-5.2-7.6-10.39-10.98-15.47-6.74-10.19-12.36-20.08-16.96-29.69-8.51-19.95-12.99-38.72-14.53-56.35-1.04-18.13.88-35.19,4.65-51.35,1.89-8.09,4.26-15.96,6.98-23.67,2.84-7.82,6.1-15.53,9.54-23.06Z"/>
        <path class="cls-1" d="M302.71,1526.32c3.78,3.42,7.49,6.86,11.4,10.1,4,3.19,8.02,6.32,12.09,9.37,8.12,6.1,16.39,11.88,24.83,17.24,4.25,2.65,8.4,5.31,12.87,7.62,4.48,2.3,9,4.48,13.57,6.52,9.14,4.08,18.47,7.59,28.01,10.42,4.77,1.41,9.59,2.65,14.46,3.71,4.99.94,10.09,1.64,15.21,2.16,10.25,1.04,20.72,1.26,31.39.53,10.71-.76,21.5-2.31,32.76-5.21,11.36-3.01,22.93-7.07,34.72-12.32-5.96-3.61-11.83-6.95-17.62-10.05-5.6-3.33-11.07-6.46-16.51-9.32-10.87-5.74-21.49-10.53-31.91-14.52-20.14-8.69-39.54-14.09-58.54-17.08-18.47-3.46-36.49-4.51-54.32-3.99-8.91.25-17.77.89-26.58,1.8-8.68.81-17.24,1.82-25.84,3.03Z"/>
        <path class="cls-1" d="M609.08,1477.85c10.29,11.99,19.63,25.25,29.02,38.1,9.22,13.1,16.94,28.12,24.14,43.47,3.49,7.86,6.58,16.22,9.24,25.18,1.33,4.48,2.55,9.11,3.65,13.9,1.13,4.75,2.28,9.41,3.22,14.38,3.87,19.76,5.76,42.32,5.25,68.36-11.22-8.42-21.19-16.83-29.97-25.2-2.2-2.09-4.32-4.18-6.37-6.27-2.03-2.12-3.88-4.42-5.72-6.62-3.65-4.43-7.03-8.84-10.14-13.23-6.23-8.76-11.41-17.42-15.66-25.97-4.02-8.9-7.06-17.75-9.37-26.4-2.3-8.67-3.81-17.19-4.68-25.59-.43-4.21-.72-8.34-.81-12.52-.03-4.26.08-8.49.31-12.69.94-16.79,3.9-33.04,7.87-48.91Z"/>
        <path class="cls-1" d="M448.27,1671.98c17.89,10.47,35.55,20.65,54.89,27.41,19.12,6.99,38.13,12.71,58.55,13.94,10.08.79,20.22.86,30.39.07,5.09-.39,10.18-1,15.29-1.83,5.13-.88,10.41-2.22,15.62-3.68,20.89-5.95,41.81-15.79,62.63-30.51-12.92-5.04-25.3-9.1-37.26-12.29-2.99-.8-5.95-1.55-8.88-2.24-2.88-.78-5.71-1.54-8.51-2.3-5.6-1.46-11.12-2.72-16.55-3.78-10.86-2.12-21.38-3.47-31.63-4.16-10.01-1.05-19.7-1.5-29.21-1.33-9.51.16-18.81.89-27.94,2.08-4.56.59-9.11,1.33-13.56,2.09-4.39.69-8.74,1.48-13.06,2.37-17.29,3.55-34.11,8.58-50.77,14.17Z"/>
        <path class="cls-1" d="M853.72,1748.69c-.65-.3-1.3-.55-1.95-.85-.85-.35-1.7-.7-2.5-1.05-2.85-1.3-5.65-2.55-8.35-3.85-1.9-.9-3.75-1.8-5.55-2.7-5.75-3.15-11.15-6.5-16.24-9.85-6.15-4.05-11.9-8.15-17.24-12.3h-.05c-3.5-2.75-6.85-5.5-10-8.25-15.7-14.85-26.99-30.54-35.19-46.14-8-16-12.55-32.74-15.15-48.98-2.55-16.39-3.1-32.44-2.1-49.18,5.9,5.35,12.2,9.9,18.19,15.05,6.05,5.1,11.9,10.5,17.59,16.24,5.55,5.95,11.4,11.3,16.79,17.49,5.45,6.15,10.65,12.75,15.6,19.94,2.45,3.55,4.8,7.4,7.2,11.15,2.4,3.65,4.75,7.5,7,11.5,4.55,8,8.75,16.64,12.6,26.14,3.9,9.4,7.4,19.79,10.65,30.64,1.5,4.9,2.95,10,4.25,15.3.4,1.5.75,3,1.1,4.55.9,3.5,1.7,7.05,2.4,10.7.2.7.35,1.35.45,2.05.2.8.35,1.6.5,2.4Z"/>
        <path class="cls-1" d="M854.87,1749.49c-.55.6-1.1,1.2-1.65,1.8-.5.5-.95,1-1.45,1.55-.8.85-1.65,1.7-2.5,2.55-1.75,1.8-3.5,3.6-5.3,5.35h-.05c-5.25,5.05-10.6,9.65-16,13.95-9.2,7.15-18.49,12.85-28.04,17.74-9.55,4.9-19.29,8.85-29.14,11.9-4.95,1.55-9.95,2.9-14.95,4.05-5,1.05-9.9,1.65-14.9,2.25-9.95,1.05-19.99,1.45-30.09,1.2-10.1-.35-20.39-.85-30.29-2.85-9.95-1.8-19.94-4.05-29.94-6.65-9.95-2.7-20.09-5.4-29.69-9.25,15.05-8.4,30.74-17.09,47.14-24.29,16.44-7.3,33.44-12.9,52.03-17.09,18.74-4.65,38.69-7,60.73-7.1,4.3-.15,8.7-.25,13.15-.25h.05q.05.05.1,0t.1,0,.1,0c.05.05.1,0,.1,0,6.95.05,14.1.4,21.49,1,6.1.45,12.35,1.2,18.84,2,2.05.15,4.1.35,6.2.6,2.75.25,5.55.55,8.35.9,1.15.1,2.3.25,3.5.4.7.05,1.4.15,2.1.25Z"/>
      </g>
    </g>
    <g>
      <path class="cls-3" d="M904.41,1825.25c-1.09,0-2.21-.94-2.21-2.21s1.59-2.68,3.16-4.11c22.15-19.44,53.6-44.1,53.6-77.46,0-24.98-13.75-30.03-21.65-30.03-6.81,0-12.03,1.26-16.76,5.68-3.8,3.64-6.64,11.08-6.64,15.18,0,1.59-.47,3.01-2.06,3.01-.8,0-1.27-1.11-1.42-3.01-.17-1.42-.94-14.54-.94-19.13,0-1.42.15-2.05,1.89-3.16,6.17-3.16,14.69-6,28.61-6,27.82,0,39.68,15.18,39.68,33.67,0,30.67-33.98,57.39-54.39,73.67-.77.63-.47,1.11.32,1.11h10.76c2.68,0,21.33-.16,27.17-.96,10.91-1.26,16.13-6.64,18.02-14.07.47-1.89.97-2.52,1.91-2.52,1.09,0,1.27,1.42,1.27,3.01,0,2.52-3.01,17.23-4.6,22.6-1.27,4.28-3.78,4.75-13.75,4.75h-61.98Z"/>
      <path class="cls-3" d="M1043.85,1827.93c-31.15,0-39.68-36.05-39.68-58.5,0-36.83,12.95-65.44,42.21-65.44,31.3,0,39.68,33.2,39.68,58.33,0,39.2-15.02,65.61-42.21,65.61ZM1043.06,1711.1c-11.86,0-20.39,16.28-20.39,52.33,0,27.35,6.79,57.39,24.19,57.39,12.8,0,20.71-21.67,20.71-52.33,0-27.35-7.28-57.39-24.51-57.39Z"/>
      <path class="cls-3" d="M1147.42,1827.93c-31.15,0-39.68-36.05-39.68-58.5,0-36.83,12.95-65.44,42.21-65.44,31.3,0,39.68,33.2,39.68,58.33,0,39.2-15.02,65.61-42.21,65.61ZM1146.62,1711.1c-11.86,0-20.39,16.28-20.39,52.33,0,27.35,6.79,57.39,24.19,57.39,12.8,0,20.71-21.67,20.71-52.33,0-27.35-7.28-57.39-24.51-57.39Z"/>
      <path class="cls-3" d="M1209.25,1782.56c0-30.83,24.34-63.87,58.65-77.63,1.42-.63,2.68-.94,3.48-.94.94,0,1.89.47,1.89,1.42,0,1.43-2.21,2.54-3.95,3.48-18.5,10.43-40.3,36.05-40.3,73.84,0,18.5,8.05,38.26,24.02,38.26,10.91,0,19.94-8.23,19.94-26.56,0-21.98-11.86-31.62-22.3-31.62-3.95,0-6.02.47-8.23,1.11-1.27.32-2.68.94-3.48.94-.62,0-1.27-.47-1.27-1.58s.8-1.74,1.74-2.37c4.75-3.32,11.86-5.68,20.56-5.68,22.3,0,32.24,18.02,32.24,32.08,0,24.51-18.17,40.63-41.24,40.63-24.36,0-41.74-16.76-41.74-45.37Z"/>
    </g>
    <path class="cls-3" d="M1059.15,1644.16c-464.62-246.2-742-668.56-742-1129.82V0h1549.04v514.34c0,461.28-277.38,883.64-742,1129.82l-32.52,17.23-32.52-17.23Z"/>
    <path class="cls-2" d="M1796.73,69.43v453.54c-1.74,213.4-68.06,419.16-187.87,600.62-121.21,183.88-297.62,342.76-517.1,459.27-436.35-231.29-701.68-630.31-705.14-1059.89V69.43h1410.12Z"/>
    <path class="cls-1" d="M1796.73,522.97c-1.74,213.4-68.06,419.16-187.87,600.62-121.21,183.88-297.62,342.76-517.1,459.27-436.35-231.29-701.68-630.31-705.14-1059.89h1410.12Z"/>
    <g>
      <path class="cls-2" d="M1298.44,1255.52c.36-.17.7-.36,1.04-.6-.34.23-.69.44-1.04.6Z"/>
      <path class="cls-2" d="M1289.83,969.84l-16.12.22c5.33-.75,10.79-1.09,16.12-.22Z"/>
      <path class="cls-2" d="M883.86,1278.7c-2.88.71-5.96.91-8.88,1.06l8.88-1.06Z"/>
      <path class="cls-2" d="M756.53,1229.06l2.36,8.89s30.67,42.63,50.35,41.81c19.68-.82,12.84-.6,12.84-.6,0,0,6.85-22.97,5.13-23.54-1.73-.57-42.24-24.27-43.58-24.27s-27.11-2.29-27.11-2.29Z"/>
      <path class="cls-2" d="M1509.42,1058.55c2.08,9.53.09,19.73-5.96,27.45-.6.66-1.08,1.36-1.48,2.1,7.31-17.5,1.21-37.07-.23-41.22,0,0,4.52,4.61,8.74,11.67h-1.06Z"/>
      <path class="cls-2" d="M1298.44,1255.52c.36-.17.7-.36,1.04-.6-.34.23-.69.44-1.04.6Z"/>
      <path class="cls-2" d="M1510.48,1058.55c-4.22-7.06-8.74-11.67-8.74-11.67h-.12c-.18-.7-.38-1.4-.58-2.09l-.12-.38-.87-2.61c-7.14-19.78-24.53-33.55-39.57-47.47-7.2-7.22-18.02-8.16-27.63-8.9-30.53-1.34-61.15,4.39-91.6.42-17.2-2.21-32.2-11.75-48.96-15.54-.82-.19-1.65-.35-2.47-.48-5.33-.87-10.79-.53-16.12.22-.35.04-.71.09-1.06.14.03-.04.04-.09.06-.13l-3.27.04-37.08-8.86c-1.91-.03-3.73-.4-5.44-1.04h-.01c-4.44-1.58-8.24-4.85-11.53-8.22l-42.16-42.4c-6.37-5.53-14.39-10.03-19.01-17.17h-.01s-30.96-30.71-30.96-30.71c0,0,0-.01-.01-.01l-2.08-2.06-.77-.77c-2.92-1.41-5.79-3-8.64-4.65-.01-.01-.04-.03-.05-.03-2.39-1.36-4.76-2.78-7.15-4.14,0-.01-.01,0-.01,0-4.45-2.54-8.96-4.93-13.67-6.68-7.06-2.93-14.8-3.17-22.32-2.75,12.5-8.02,20.95-21.05,34.14-28.15,7.1-3.98,15.33-5.4,23.42-5.4,7.74-8.33,6.14-20.61,9.72-30.58,6.09-5.43,14.1-7.84,21.49-10.92,2.61-7.57,6.62-14.52,9.55-21.96,3.5-8.35,12.08-12.64,18.08-18.94,8.89-8.41,13.62-21.52,10.55-33.57-2.87-11.16-8.31-21.46-14.26-31.23-4.34-6.8-8.74-13.68-14.41-19.46-10.86-10.5-28.4-8.61-39.13-19.29-6.3-5.92-8.79-15.76-17.38-19.08-5.92-1.49-12.12-1.58-18.12-2.74-13.41-2.22-27.79-2.6-40.3,3.47-10.81,5.24-17.26,15.9-26.43,23.23-4.11,3.27-9.98,3.34-13.78,7.09-5.11,4.88-9.88,10.14-14.41,15.56-2.58,3.09-5.02,6.42-6.05,10.37-4.74,14.86.26,30.8-3.78,45.77-1.48,6.85-9.03,9.23-12.62,14.69-4,5.04-4.01,12.5-9.23,16.65-9.37,7.68-21.1,11.4-32.19,15.84-8.07,2.99-15.64,7.31-24,9.49-34.51,9.07-69.45,16.42-103.88,25.8-7.67,1.86-14.39,6.24-20.46,11.15,0,0-.01,0-.03.01-12.14,9.89-22.45,21.74-33.23,33.02-5.61,5.3-7.02,13.19-9.86,20.04-.67,1.96-1.43,3.88-2.26,5.78-.01.01-.01.03-.01.04-4.3,9.84-10.34,18.82-15.72,28.1-4.87,8.63-13.47,14.26-18.82,22.56-7.33,11.37-11.03,24.52-16.33,36.86-3.66,9.03-8.74,17.38-14.55,25.17-3,32.23-3,61.24,18.79,123.95,17.42,50.17,44.21,103.36,63.82,140.22.67,1.28,1.35,2.54,2.01,3.79.67-.04,1.35-.08,2.02-.09,8.77-.44,17.56-.6,26.39-.4.34.44,1.01,1.31,1.36,1.74,6.93,16.26,19.3,29.61,33.42,39.96,5.01-5.36,12.3-2.41,18.46-1.57,5.32.09,4.69-6.36,5.35-9.96,10.14,1.66,16.29,12.37,26.97,12.25.69-.04,1.4-.08,2.12-.13,2.92-.16,6-.35,8.88-1.06h.04c2.78-.71,5.37-1.91,7.42-4.04,3.73-3.76,3.78-9.38,4.01-14.32,25.74,7.63,52.83,8.67,78.82,15.06-1.13,3.02-4.65,4.43-7.27,6.02-5.56,2.49-11.46,3.27-17.43,3.62l-12.16,20.82-1.93,4.71c25.89-3.96,51.91-7.1,78.14-8.45,7.88-8.61-.79-20.82,5.1-30.07,6.11-10.81,16.42-18.46,26.93-24.69,14.17-7.97,30.09-14.21,46.58-13.86,14.19,1.49,26.1,10.21,37.98,17.39,21.75,13.82,44.91,27.54,59.71,49.31,13.68,19.34,30.87,35.76,46.65,53.32,2.44,2.38,1.74,6.02,2.08,9.1.64,17.35-1.88,36.07-13.04,50.06-9.72,12.38-25.73,18.24-41.12,18.44-15.25.45-29.62-5.94-42.81-12.97-15.33-8.09-29.85-18.18-46.65-23.08-7.16-2.26-14.77-2.06-22.18-2.41-5.45,1.53-4.52,9.09-9.09,11.69-15.55-1.8-30.8-8.03-42.85-18.12-5.58-4.34-11.59-9.23-13.38-16.39-1.38-4.84.32-9.72,1.69-14.33,25.61,4.72,50.41,14.21,76.7,15.07,7.7-.39,12.62,6.19,16.61,11.79,3.12,4.61,8.38,7.39,13.97,7.32,1.69-3.98,3.73-8.33,2.45-12.75-1.17-4.7-5.52-7.52-9.62-9.42-9.67-4.37-20.46-5.43-30.09-9.9-7.68-3.49-15.15-7.53-23.25-10.01-10.03-3.13-19.92-7.46-30.57-7.83-1.77-2.96-4.69-4.23-8.06-3.83-3.93-7.96-8.37-16.19-15.96-21.22-4.54-3.09-9.88-4.79-15.29-5.46.18,3.12.01,6.37,1.13,9.36,3.12,8.37,13.91,12.2,14.26,21.88-.13,7.98-1.78,16.12-5.06,23.44-1.51,3.5-4.18,6.14-7.4,7.93,8.51,11.55,18.5,22.99,28.72,30.23,25.08,17.73,123.2,41.47,141.37,45.78h.01c.26-.01.53-.03.82-.04,9.32-.42,18.64-.87,27.96-1.35,14.67-.75,29.33-1.56,44-2.4,2.99-.17,5.62-.31,7.8-.44,1.6-2.41,3.08-4.79,4.45-7.14.53-.9,1.04-1.79,1.54-2.69,1.31-2.35,2.52-4.66,3.62-6.93.4-.84.8-1.67,1.18-2.49.21-.44.4-.88.6-1.32.19-.43.39-.87.57-1.3.77-1.74,1.45-3.44,2.09-5.11.32-.84.62-1.67.92-2.51.3-.83.57-1.65.84-2.47.21-.62.4-1.26.6-1.88.09-.29.18-.57.26-.86.44-1.49.86-2.97,1.22-4.43.19-.78.38-1.54.55-2.31.04-.12.06-.25.09-.36.01-.04.03-.08.03-.12.09-.4.17-.8.26-1.19.03-.09.04-.17.04-.22.03-.09.03-.13.03-.13,2.89-14.2,1.99-26.01.03-34.84-.29-1.04-.55-2.1-.79-3.21-2.62-9.63-6.26-14.94-6.26-14.94l4.01-10.76v-19.11l2.4-6.52c13.46-78.41,79.66-137.57,109.05-160.4,1.18-5.3,2.14-10.76,2.88-16.17-.17-3.09.23-6.19,1.08-9.2,1.93-19.24,1.58-35.41,1.58-35.41-1.3-2.45-2.74-4.84-4.28-7.14-.08-.12-.13-.18-.13-.18-6.18-9.2-14.19-17.22-22.9-24.05,5.43-9.02,16.2-12.49,26.06-13.91,14.04-1.82,28.27-1.57,42.4-.86,3.87,11.51,12.33,20.78,16.16,32.31,1.61,4.26,2.3,8.77,2.86,13.28-9.11,6.11-20.62,1.22-30.53,4.53-6.84,1.47-4.28,12.06,1.44,13.5,10.73,3.1,21.95-.66,32.89.73.18,3.49.12,6.97-.14,10.41-.04.53-.08,1.06-.13,1.58-.1,1.23-.23,2.47-.39,3.69-.06.56-.14,1.1-.22,1.66-.06.55-.14,1.1-.23,1.65-.16,1.1-.34,2.21-.52,3.3-.09.56-.18,1.1-.29,1.65-.6,3.36-1.26,6.72-1.95,10.07-.17.86-.35,1.71-.52,2.58-1.04,5.1-2.04,10.2-2.76,15.33-.08.56-.16,1.12-.22,1.66-.04.29-.06.56-.1.84v.09c-.43,7.45-3.09,15.12-4.1,17.83h.09c-.64,14.41-7.97,27.63-7.67,42.11,3.47-.22,7.54-1.08,9.24-4.5,2.89-5.58,2.44-12.14,2.48-18.24,3.43-.69,7.03-1.08,10.18-2.78,2.45-1.27,3.95-3.74,6.13-5.36,4.88-1.22,10.75-1.54,14.82,1.92,4.19,3.41,5.2,9.02,6.94,13.85,3.84-3.84,6.02-9.1,5.79-14.54.08-6.62-1.69-13.75,1.73-19.83.03.01.06.01.09.03.25-4.06.44-7.85.44-7.85-1.82-15.33-3.05-31.83,3.78-46.18,3.7-8.4,15.32-8.02,19.51-15.93,1.93-4.71,1.13-10.32,3.56-14.8.4-.74.88-1.44,1.48-2.1,6.05-7.72,8.03-17.92,5.96-27.45h1.06ZM1098.98,632.82c-8.75-5.15-19.55-4.15-28.59-8.58,7.79-11.66,23.97-9.25,35.52-5.79,17.15,7.7,29.1,24.48,47.83,29.15-1.79,1.97-4.13,3.76-6.96,3.47-8.57-.04-15.6-5.76-23.6-8.03.09,2.41-.67,5.26,1.06,7.31,2.43,3.04,6.14,4.61,9.66,6.06,10.7,4.14,22.16,6.42,32.24,12.05,5.05,2.79,9.42,7.19,10.92,12.89-14.33-2.6-27.14-11.42-42.01-11.23-5.2-.17-10.2,1.43-14.99,3.28-9.89-16.07-32.99-11.11-45.12-24.26-3.23-3.6-4.24-8.51-4.61-13.2,6.49-.97,12.5,1.91,17.81,5.27,5.05,3.27,11.29,3.54,17.06,2.41-.8-4.15-2.35-8.54-6.22-10.8ZM1039.55,715.94c3.95.39,6.46-3.26,9.1-5.59,3.44-3.74,8.38-6.45,13.62-5.76,5.28,7.44,11.37,14.82,19.66,19.02,8.62.44,18.74-2.3,22.6-10.84,8.01,4.7,17.7,3.44,26.56,2.96,1.6-1.38.88-4.26.87-6.19-.44-5.22-5.23-8.11-8.66-11.4-3.53-3-4.62-8.2-3.17-12.51,1.78-3.39,6.09-4.37,9.6-3.65,8.44,1.73,15.46,7.2,21.71,12.84,3.87,3.8,8.14,7.66,10.09,12.86,2.23,11.64-5.18,23.69-16.06,27.93-7.26,3.35-15.35,2.93-23.12,3.21-2.26,3.41,2.14,7.26,1.6,11.15-3.97.01-7.94.01-11.9.1-1.44,6.39-3.02,13.43-8.36,17.77-3.8,3.31-8.89,4.11-13.67,5.01-1.86,1.97.88,4.26,2.26,5.65,8.74,4.65,19.37.17,28.3,4.21,4.32,1.87,4.57,7.37,3.43,11.29,0,2.35-2.88,2-4.5,2.12-6.01-.25-10.57-6.39-16.89-4.72-4.89-.23-2.61,6.97-6.61,8.19-3.43.87-7,.17-10.45-.01-1.04,10.7-10.63,17.68-19.17,22.74-13.6-3.41-23.21-15.25-27.04-28.31-8.49-27.94-5.57-57.64-10.79-86.16,5.81-1.47,7.89,4.67,10.98,8.11ZM1058.57,837.6c-4.19.03-9.03.43-12.45-2.53-2.32-2.15-2.34-5.53-2.76-8.41,5.36,3.17,11.29,5.91,15.21,10.94ZM899.35,780.32c10.14-7.89,23.29-10.79,35.91-11.08,2.39-.3,5.32.49,7.13-1.57,8.96-8.4,21.25-11.85,33.15-13.32,11.11-1.41,22.32-.99,33.49-.43-.82,10.4.36,20.87,3.19,30.9,2.74,10.98,7.28,22.23,4.62,33.71-4.21,1.25-8.41,2.71-12.84,2.86-4.66.08-9.09-1.54-13.51-2.79-2.13-16.52,4.01-34.3-3.66-49.92-3.97,3.82-5.57,9.25-6.63,14.49-2.6,13.01-1.04,26.31-1.66,39.47-8.44,3.09-17.69,1.62-25.7-2.01-10.05-4.34-19.34-10.24-29.5-14.33-8.71-4-18.74-8.37-22.87-17.69-.75-2.57-2.48-5.72-1.12-8.28ZM871.75,1213.23c-6.1,1.47-12.68-.64-17.13-4.93-1.35-.96-1.44-2.02-.29-3.21,5.84-7.45,15.04-11.1,23.93-13.45,14.55-3.67,29.63-4.75,44.16-8.61,24.48-6.1,49.56-13.2,75.03-9.98,13.91,1.91,27.46,6.11,40.6,11.01-43,5.72-86.99,3.8-129.33,14.25-13.14,2.88-23.8,12.16-36.98,14.91ZM1044.35,1020.03c-1.88-11.98,2.88-24.38,9.94-34.02,7.02-9.14,14.93-17.6,21.09-27.39h.01c.05.09.25.39.58.88,1.26,1.96,2.35,4.09,4.19,5.54.14.12.29.22.44.32,7,5.02,12.78,11.5,19.66,16.68,4.4,3.39,10.01,4.53,14.72,7.4,3.48,1.96,2.38,7.8,6.63,8.98,7.89,3.31,15.94,6.7,22.47,12.37,6.98,6.83,17.63,6.68,25.43,12.2,1.56,1.12,3.21,2.43,4.56,3.95,0,0,0,.01.01.01,1.79,2.05,3.06,4.46,2.89,7.31.31,8.61-3.19,17.41-9.94,22.9-7.7,6.31-17.06,9.98-25.79,14.61l-.05.04-95.56,67.13-23.79-1.14-19.21-28.37,13.19-24.09c7.57-12.59,14.73-28.8,20.13-42.25v-.04h.01c4.08-10.12,7.15-18.68,8.64-22.96-.09-.01-.18-.04-.27-.06ZM1021.89,1161.61c2.75,1.21,2.58,4.44,2.65,6.94-31.31-5.41-63.16-1.36-94.34,2.88-34.06,4.75-68.65,8.99-102.99,4.82,30.44-18.38,65.42-31.05,101.34-30.64,25.87.32,50.15,10.24,75.22,15.35,5.97,1.35,12.33-2.05,18.12.65ZM945.57,1228.69c-11.77,6.7-20.99,19.14-35.49,19.96-.97-10.01,6.62-17.74,14.43-22.65,10.59-6.39,20.86-13.49,32.38-18.16,21.09-9.02,44.21-12.21,67.01-12.34-8.57,11.08-23.91,10.54-36.33,13.43-14.99,4.15-28.59,12.07-42.01,19.75ZM1055.15,1202.86c-.38,2.44-.51,5.48-3.06,6.72-5.65,2.88-12.24,1.19-18.26,2.32-11.6,2.8-20.33,12.94-32.53,13.93-2.43.25-4.87-.01-7.28-.16,1.95-7.41,9.7-10.34,16.37-12.07,14.98-3.37,29.06-11.03,44.77-10.75ZM1041.75,1233.97c-15.98,6.87-26.21,22.26-41.91,29.58-4.26,2.1-8.89,3.19-13.52,3.97-.84-5.53-.61-11.37,2.04-16.39,4.83-9.38,14.2-15.29,23.42-19.77,19.55-8.92,41.17-12.38,62.51-13.03.12-3.92.13-7.83.13-11.72,2.78.65,6.2.95,7.9,3.63,2.99,4.53,2.73,10.23,3.14,15.43-14.64,2.13-29.89,2.39-43.7,8.29ZM1352.2,1081.69c12.33,18.66,9.4,46.09-7.09,61.35-10.8,11.31-24.99,19.3-33.81,32.46-2.57,3.48-3.5,7.72-4.87,11.73-6.22,1.16-12.77.14-19.11.49-17.67,21.01-26.1,48.13-44.31,68.74-5.22,6.01-10.82,11.69-15.84,17.87-4.91,5.92-6.27,13.97-11.42,19.7-2.79,3.18-7.61,5.06-11.66,3.62-3.34-4.78-8.93-9.18-8.06-15.64.1-7.55,9.07-10.36,11.36-17.03,3.63-10.37,2.74-21.79,6.74-32.07,1.45-4.21,3.41-8.48,3.28-13.01-1.73-2.09-3.8-3.84-5.76-5.69,8.76-17.95,23.08-32.22,34.18-48.62,6.78-4.53,15.71-1.6,23.19-3.89,3.6-1.16,5.48-4.76,6.54-8.13.48-1.78,1.49-3.93.09-5.56-3.12-4.79-9.09-6.8-14.59-6.53-13.5.27-25.27,7.57-37.28,12.81-2.35,4.92-.83,10.59-2.43,15.69-1.53,3.08-5.84,2.45-8.15,4.67-4.93,4.71-5.49,12.2-10.06,17.17-2.99,2.88-7.33,3.7-10.41,6.45-3.1,3.74-1.31,9.64-5.17,12.98-9.19,9.88-19.43,20.26-33.05,23.39-14.59,2.95-29.22-3.32-41.16-11.27-11.02-7.16-17.42-19.48-20.05-32.07-13.24-6.01-28.19-9.11-39.42-18.85-5.59-4.78-8.8-11.73-10.16-18.85,38.72-27.08,77.24-55.23,120.74-74.28,48.01-21.48,101.14-30.54,153.56-28.36,13.11,7.92,25.74,17.67,34.16,30.68ZM1463.06,1187.35c-5.14,1.96-11.02-1.32-16.42,0-2.1.05-2.28,2.57-3.1,3.95-3.75.03-7.48,0-11.2-.18.3-11.68,13.42-19.31,24.12-17.34,6.01,1.17,8.25,8.27,6.61,13.58ZM1459.17,1160.84c-6.18-.08-12.36-.05-18.52-.05,4.06-13.69,5.5-28.17,11.28-41.33,2.66,2.86,4.65,6.32,5.59,10.14,2.65,10.19,1.49,20.82,1.65,31.24ZM1471.16,1054.37c-8.38,1.05-12.45-8.99-20.61-8.49-3.28.18-6.81.12-9.8,1.61-1.3,3.79-.82,7.92-1.64,11.81-2.06-.25-4.09-.49-6.11-.75-.44-17.41-9.07-33.02-11.72-50-14.78,1.43-28.63,7.64-43.47,8.59-6.1.64-12.17-.29-18.24-.73,1.43,5.13,9.86,4.82,8.46,11.24-27.31,4.36-54.64,9.42-82.36,10.15-20.46.45-41.87-1.03-60.23-10.89-5.19-2.66-9.49-6.62-13.88-10.38-9.16-.14-18.5-.03-27.35-2.82-16.85-4.59-30.05-16.52-44.68-25.36-1.17-.95-3.04-1.38-3.4-2.99,4.43-3.4,10.1-5.57,15.73-4.66,8.05,1.13,14.76,5.97,21.87,9.5,1.57-4.34,1.96-9.05,3.92-13.24,2.17-3.89,6.85-4.87,10.76-6.13-12.75-8-26.44-14.41-39.51-21.87-9.18-5.53-20.24-7.37-28.75-14.06-5.26-4.01-8.33-10.89-7.59-17.46,7.67-5.92,18.07-2.8,27-3.66-.64-7.01-7.77-10.07-13.81-11.15-11.69-2.04-25.12-2.3-34.86,5.54-13.93,10.97-21.91,27.3-30.42,42.43-7.93,14.04-15.08,29.48-28.43,39.3,1.08,20.51-3.48,41.25-13.19,59.36-10.42,20.27-25.05,38.47-32.09,60.41-1.34,2.62,1.25,4.8,2.45,6.89,7.14,9.37,16.74,17.39,20.04,29.15-13.63,6.22-28.76,1.58-42.43-1.96-14-4.1-28.5-7.14-43.17-5.92-14.65.71-32.02,3.57-43.81-7.42,12.34-6.7,27.08-1.77,39.95-6.44,2.43-.93,4.23-2.88,6.17-4.53-13.23-3.56-27.62-5.14-38.89-13.62-5.87-4.09-9.38-10.59-11.41-17.3-9.7,14.28-12.98,32.16-11.41,49.15-5.96-.64-12.03.23-17.44,2.84-4.31,1.64-8.81,4.78-13.6,3.26-4.67-1.27-4.36-7.13-4.78-10.95.57-15.47,7.84-31.19,20.62-40.28,1.01-5.87-4-9.97-6.78-14.45-2.44-3.76-1.41-8.4-.83-12.53-14.54-7.77-28.79-17.79-45.77-18.98-.06-7.06-.92-14.93,3.47-21,2.54-3.83,7.31-4.87,11.59-5.24-2.79-3.36-7.46-7.07-5.37-12.01,3.04-6.96,6.96-13.98,5.83-21.9,4.97-2.93,10.4-5.19,16.29-4.36,2.52-4.7-1.62-10.31-1.22-15.42-.09-2.78,1.03-6.05,3.87-7.03,8.68.12,17.26,2.7,24.88,6.81,11.03,5.96,20.14,14.87,31.25,20.72,9.79,5.22,21.13,7.44,32.16,6.55,1.36-.31,4.15-.38,3.75-2.51-.57-4-3.88-7.01-5.4-10.67,1.64-.84,3.28-1.67,4.95-2.48-6.58-10.62-20.42-10.41-30.62-15.25-12.77-9.23-18.37-24.66-25.78-37.95-6.09-11.68-14.65-23.34-27.62-27.75-7-2.14-14.69-3.76-21.91-1.91.34,7.61,6.28,15.37,2.1,22.82-13.89,20.79-28.14,41.74-46.67,58.75-10.85,10.11-23.4,18.25-36.84,24.51,8.42,27.98,18.85,55.33,26.69,83.5,7.57,26.67,10.8,54.57,21.08,80.45,5.52,13.94,14.43,27.54,28.43,34.11,9.54-1.25,19.75.09,27.78,5.72,5.18,3.36,9.19,8.09,13.49,12.45,3.41,3.52,8.68,3.95,12.56,6.76,1.61,1.51.36,3.54,0,5.31-2.89.3-6.04,1.12-8.74-.35-3.31-1.96-5.76-4.98-8.62-7.49-.67.71-1.35,1.44-2,2.19,4.4,13.95,20.94,20.27,22.86,35.37-10.16-7.8-20.99-14.78-30.45-23.47-6.65-6.05-11.68-13.63-15.29-21.82-2.92,3.31-5,7.88-3.3,12.3,3.14,8.83,11.92,13.36,18.59,19.18-4.27,2.48-9.1.69-12.23-2.69-5.28-5.18-9.36-11.41-13.86-17.24-2.62,2.79-5.27,7.68-9.86,6.01-5.96-2.41-10.41-7.59-16.61-9.54-3.88-1.44-8.07-.93-12.08-.52-7.92-18.34-17.37-35.99-27.91-52.96-1.62-2.84-4.18-4.92-6.57-7.07,2.39-2.96,5.41-5.26,8.35-7.62-3.39-10.27-14.41-14.77-19.7-23.77-.35-2.96,1.39-6.4-.8-8.92-3.23-4.08-8.16-6.79-10.25-11.75-1.53-2.86-1.04-6.14-.3-9.14,8.66,3.73,17.46,8.49,27.22,7.55-.22-2.71-.38-5.58-2.08-7.83-4.79-6.8-11.94-11.49-16.8-18.24-12.21-17.16-21.69-37.64-20.27-59.16.26-7.61,2.58-14.85,4.36-22.16-1.01-4.35-6.26-4.5-9.7-5.75-2.6-.6-6.19-2.6-5.15-5.76,4.49-15.13,16.28-26.47,22.58-40.72,3.74-.04,7.49-.04,11.23-.01,17.18-13.5,29.72-32.2,48.21-44.14,6.44-4.32,13.71-7.1,20.97-9.66-2.88-10.98-17.06-13.62-19.17-24.88-.91-10.92,1.83-22.14,7.39-31.57,7.72-13.14,20.61-21.77,31.53-31.96,1.39-1.25,2.79-2.83,4.85-2.67,15-.79,30.13.38,44.86,3.39,2.65.23,4.09,2.66,5.87,4.31,13.02,13.51,29.81,23.52,48.22,27.53,10.63,2.52,21.62,3.24,32.53,2.8-6.04-7.02-14.52-10.97-22.38-15.52,13.23-1.52,25.39,5.57,35.89,12.76,5.88,4.21,11.51,8.81,16.42,14.13,30.06-.99,60.29-3.23,90.3.19,10.62,1.36,21.65,3.24,30.8,9.16,11.75,7.37,22.55,16.59,30.59,27.96,3.48,4.75,5.05,10.99,10.25,14.34,4.37,2.92,7.74,7.77,6.27,13.28,17.04,13.14,37.11,23.03,50.48,40.38,8.93,11.2,13.41,25.36,14.3,39.55,17.63-3.7,32.54-15.16,50.35-18.26,14.72-2.7,29.66.93,43.55,5.72,10.21,3.3,20.13,8.05,30.96,9.05,28.75,3.17,57.69.08,86.22-3.82,3.06-.83,5.67,1.26,8,2.95,9.15,7.14,14.72,17.55,21.05,27.02,6.55,10.54,17,20.64,15.81,34.06Z"/>
      <path class="cls-2" d="M1368.08,1082.34s27.95,35.94-1.14,68.11l1.14-68.11Z"/>
      <path class="cls-2" d="M1075.38,958.62s31.74,48.94,101.62,69.2c69.88,20.26-31.03-27.52-31.03-27.52l-70.6-41.68Z"/>
      <path class="cls-2" d="M1104.49,850.02s58.69,30.33,125.2,113.62l-4.59,14.49-120.61-128.11Z"/>
      <path class="cls-2" d="M1258.15,1401.87c-2.74,12.3-8.35,26.36-18.53,41.79-17.26,1-63.33,3.35-80.59,4.23,103.92,28.27,97.26-38.73,99.12-46.03Z"/>
      <path class="cls-2" d="M1258.5,1400.21s0,.04-.03.13c.01-.05.01-.09.03-.13Z"/>
      <path class="cls-2" d="M776.84,1259.32s82.1,88.63,240.81,142.8l-15-24.09,3.44-36.98-12.07-24.94-8.13-26.66-13.33-21.93-88.69-23.65-23.97,27.52-83.05-12.07Z"/>
    </g>
    <g>
      <path class="cls-5" d="M1452.05,437.15h-104.45c-21.93,0-37.05-11.65-40.39-30.98l-20.82-121.43h-.25c-.12-.62-.25-1.24-.37-1.98,35.19-61.58,50.92-88.22,57.86-99.37,1.24-2.11,2.23-3.59,2.97-4.71,13.13-19.7,24.91-21.68,26.02-21.81,1.12,0,2.35-.25,3.47-.5,3.1,4.09,5.33,9.04,6.32,14.62l20.82,113h.25c8.92,53.77,18.34,108.05,22.05,122.54,7.68,30.23,25.9,30.61,26.52,30.61Z"/>
      <path class="cls-4" d="M1061.25,141.64c-.62,0-19.45.37-38.29,29.61-3.59,5.45-10.28,17.1-18.83,32.34-8.55,15.24-19.08,34.07-30.11,54.02-5.82,10.41-11.65,21.06-17.47,31.84h-.12l-24.29,43.86v.12l-40.89,73.85c-10.41,18.71-30.11,29.86-52.66,29.86h-107.3c.74,0,19.58-.37,38.29-29.61,9.05-13.88,38.04-66.29,66.54-118.08l65.3-117.96c10.28-18.71,29.98-29.86,52.54-29.86h107.3Z"/>
      <path class="cls-4" d="M1373.12,141.64c-.62,0-19.45.37-38.29,29.61-3.72,5.82-11.03,18.59-20.44,35.19-9.29,16.6-20.69,37.17-32.59,58.61-4.46,8.05-8.92,16.23-13.38,24.41l-26.52,47.7-38.78,70.13c-10.28,18.71-29.98,29.86-52.54,29.86h-107.3c.62,0,19.45-.37,38.29-29.61,3.47-5.45,10.16-16.85,18.59-31.84,8.55-15.12,18.83-33.7,29.74-53.4,5.95-10.78,12.02-21.81,18.09-32.83h.12l16.36-29.61,48.82-88.34c10.28-18.71,29.99-29.86,52.54-29.86h107.3Z"/>
      <g>
        <path class="cls-5" d="M1102.76,349.67c-15.36,27.51-27.88,49.56-33.21,57.86-15.86,24.66-31.6,28.75-36.55,29.37-9.42-.5-17.59-3.1-23.91-7.68-7.31-5.2-12.14-13.01-13.88-23.05l-20.82-121.43h-.12c-.12-.62-.25-1.24-.37-1.98,35.19-61.83,51.05-88.47,57.86-99.5,1.24-1.98,2.23-3.47,2.97-4.58,13.13-19.7,24.91-21.68,25.9-21.81,1.24,0,2.35-.25,3.59-.5,3.1,4.09,5.33,9.04,6.32,14.62l20.82,113h.25c3.72,22.92,7.68,45.72,11.15,65.67Z"/>
        <g>
          <path class="cls-2" d="M1138.55,437.13h1.64c-.06,0-.41-.03-.75-.06-.3,0-.58.06-.89.06Z"/>
          <path class="cls-2" d="M1139.43,437.08c-.3,0-.58.06-.89.06h1.64c-.06,0-.41-.03-.75-.06h0Z"/>
        </g>
      </g>
    </g>
  </g>
</svg>